<svg width="7398" height="1507" viewBox="0 0 7398 1507" fill="none" xmlns="http://www.w3.org/2000/svg">
<path d="M172.727 813.218C173.481 820.456 166.911 826.39 159.634 826.401C150.459 826.414 141.944 826.417 133.39 826.302C129.364 826.219 127.015 823.87 126.512 818.586C125.421 807.598 124.331 796.611 123.828 785.539C120.137 702.168 131.209 620.725 155.449 540.96C167.778 500.448 182.457 460.859 201.412 422.948C253.163 319.027 324.037 230.539 416.048 159.329C478.787 110.849 546.725 71.6795 621.71 45.0912C662.976 30.4969 705.081 19.174 748.193 11.4575C783.756 5.083 819.487 1.05703 855.553 0.218286C951.674 -2.04634 1044.86 13.3028 1135.19 46.6011C1201.87 71.1765 1264.02 104.139 1321.23 146.245C1395.46 200.847 1458.28 266.27 1508.1 344.022C1544.08 400.218 1572.01 460.021 1592.48 523.346C1623.01 617.706 1633.74 714.497 1627.12 813.386C1626.82 818.463 1622.99 822.674 1617.98 823.526C1611.08 824.698 1602.59 825.061 1594.66 824.551C1586.32 824.015 1579.98 818.713 1580.48 810.366C1583.08 769.1 1583.17 727.833 1579.14 686.567C1572.52 619.299 1556.83 554.128 1532.59 490.97C1502.23 412.044 1458.53 341.337 1402 278.683C1361.32 233.558 1315.02 194.724 1264.11 161.342C1188.12 111.52 1105.75 76.9638 1016.59 59.35C930.957 42.4073 844.817 41.2332 758.677 55.8274C640.246 75.9574 534.06 124.017 439.785 198.163C358.258 262.327 293.675 340.583 246.872 433.516C208.877 509.004 184.889 588.433 175.076 672.308C169.624 719.194 168.869 766.164 172.727 813.218Z" fill="#B24FFF"/>
<mask id="mask0_1308_651" style="mask-type:luminance" maskUnits="userSpaceOnUse" x="123" y="0" width="1506" height="827">
<path d="M172.719 813.218C173.473 820.456 166.903 826.39 159.626 826.401C150.451 826.414 141.936 826.417 133.382 826.302C129.356 826.219 127.007 823.87 126.504 818.586C125.414 807.598 124.323 796.611 123.82 785.539C120.13 702.168 131.201 620.725 155.441 540.96C167.77 500.448 182.449 460.859 201.404 422.948C253.155 319.027 324.03 230.539 416.04 159.329C478.779 110.849 546.718 71.6795 621.702 45.0912C662.968 30.4969 705.073 19.174 748.185 11.4575C783.748 5.083 819.479 1.05703 855.545 0.218286C951.666 -2.04634 1044.85 13.3028 1135.18 46.6011C1201.86 71.1765 1264.02 104.139 1321.22 146.245C1395.45 200.847 1458.27 266.27 1508.09 344.022C1544.07 400.218 1572 460.021 1592.47 523.346C1623 617.706 1633.74 714.497 1627.11 813.386C1626.81 818.463 1622.99 822.674 1617.97 823.526C1611.08 824.698 1602.58 825.061 1594.65 824.551C1586.31 824.015 1579.98 818.713 1580.48 810.366C1583.08 769.1 1583.16 727.833 1579.13 686.567C1572.51 619.299 1556.82 554.128 1532.58 490.97C1502.22 412.044 1458.52 341.337 1401.99 278.683C1361.31 233.558 1315.01 194.724 1264.1 161.342C1188.11 111.52 1105.74 76.9638 1016.59 59.35C930.949 42.4073 844.809 41.2332 758.67 55.8274C640.238 75.9574 534.052 124.017 439.777 198.163C358.251 262.327 293.667 340.583 246.865 433.516C208.869 509.004 184.881 588.433 175.068 672.308C169.616 719.194 168.861 766.164 172.719 813.218Z" fill="white"/>
</mask>
<g mask="url(#mask0_1308_651)">
</g>
<mask id="mask1_1308_651" style="mask-type:luminance" maskUnits="userSpaceOnUse" x="123" y="0" width="1506" height="827">
<path d="M172.719 813.218C173.473 820.456 166.903 826.39 159.626 826.401C150.451 826.414 141.936 826.417 133.382 826.302C129.356 826.219 127.007 823.87 126.504 818.586C125.414 807.598 124.323 796.611 123.82 785.539C120.13 702.168 131.201 620.725 155.441 540.96C167.77 500.448 182.449 460.859 201.404 422.948C253.155 319.027 324.03 230.539 416.04 159.329C478.779 110.849 546.718 71.6795 621.702 45.0912C662.968 30.4969 705.073 19.174 748.185 11.4575C783.748 5.083 819.479 1.05703 855.545 0.218286C951.666 -2.04634 1044.85 13.3028 1135.18 46.6011C1201.86 71.1765 1264.02 104.139 1321.22 146.245C1395.45 200.847 1458.27 266.27 1508.09 344.022C1544.07 400.218 1572 460.021 1592.47 523.346C1623 617.706 1633.74 714.497 1627.11 813.386C1626.81 818.463 1622.99 822.674 1617.97 823.526C1611.08 824.698 1602.58 825.061 1594.65 824.551C1586.31 824.015 1579.98 818.713 1580.48 810.366C1583.08 769.1 1583.16 727.833 1579.13 686.567C1572.51 619.299 1556.82 554.128 1532.58 490.97C1502.22 412.044 1458.52 341.337 1401.99 278.683C1361.31 233.558 1315.01 194.724 1264.1 161.342C1188.11 111.52 1105.74 76.9638 1016.59 59.35C930.949 42.4073 844.809 41.2332 758.67 55.8274C640.238 75.9574 534.052 124.017 439.777 198.163C358.251 262.327 293.667 340.583 246.865 433.516C208.869 509.004 184.881 588.433 175.068 672.308C169.616 719.194 168.861 766.164 172.719 813.218Z" fill="white"/>
</mask>
<g mask="url(#mask1_1308_651)">
<path d="M1214.74 -1.97266H537.279C308.514 -1.97266 123.062 183.478 123.062 412.244C123.062 641.009 308.514 826.46 537.279 826.46H1214.74C1443.5 826.46 1628.95 641.009 1628.95 412.244C1628.95 183.478 1443.5 -1.97266 1214.74 -1.97266Z" fill="#B24FFF"/>
</g>
<mask id="mask2_1308_651" style="mask-type:luminance" maskUnits="userSpaceOnUse" x="123" y="0" width="1506" height="827">
<path d="M172.719 813.218C173.473 820.456 166.903 826.39 159.626 826.401C150.451 826.414 141.936 826.417 133.382 826.302C129.356 826.219 127.007 823.87 126.504 818.586C125.414 807.598 124.323 796.611 123.82 785.539C120.13 702.168 131.201 620.725 155.441 540.96C167.77 500.448 182.449 460.859 201.404 422.948C253.155 319.027 324.03 230.539 416.04 159.329C478.779 110.849 546.718 71.6795 621.702 45.0912C662.968 30.4969 705.073 19.174 748.185 11.4575C783.748 5.083 819.479 1.05703 855.545 0.218286C951.666 -2.04634 1044.85 13.3028 1135.18 46.6011C1201.86 71.1765 1264.02 104.139 1321.22 146.245C1395.45 200.847 1458.27 266.27 1508.09 344.022C1544.07 400.218 1572 460.021 1592.47 523.346C1623 617.706 1633.74 714.497 1627.11 813.386C1626.81 818.463 1622.99 822.674 1617.97 823.526C1611.08 824.698 1602.58 825.061 1594.65 824.551C1586.31 824.015 1579.98 818.713 1580.48 810.366C1583.08 769.1 1583.16 727.833 1579.13 686.567C1572.51 619.299 1556.82 554.128 1532.58 490.97C1502.22 412.044 1458.52 341.337 1401.99 278.683C1361.31 233.558 1315.01 194.724 1264.1 161.342C1188.11 111.52 1105.74 76.9638 1016.59 59.35C930.949 42.4073 844.809 41.2332 758.67 55.8274C640.238 75.9574 534.052 124.017 439.777 198.163C358.251 262.327 293.667 340.583 246.865 433.516C208.869 509.004 184.881 588.433 175.068 672.308C169.616 719.194 168.861 766.164 172.719 813.218Z" fill="white"/>
</mask>
<g mask="url(#mask2_1308_651)">
<path d="M1633.64 824.111V0.375961C1633.64 -0.921145 1632.59 -1.97266 1631.29 -1.97266C1630 -1.97266 1628.95 -0.921126 1628.95 0.37598V824.111C1628.95 825.409 1630 826.46 1631.29 826.46C1632.59 826.46 1633.64 825.409 1633.64 824.111Z" fill="#B24FFF"/>
</g>
<path d="M176.403 1000.14C175.925 996.839 178.852 993.549 182.185 993.701C190.192 994.151 198.169 994.751 206.276 995.785C216.785 997.125 225.887 1004.18 229.659 1014.08C261.112 1095.61 305.566 1169.17 364.11 1234.09C419.384 1295.4 484.051 1344.47 557.274 1382.46C605.251 1407.37 655.408 1426.5 707.662 1439.92C741.715 1448.64 776.272 1453.84 811.247 1457.28C884.974 1464.57 958.196 1460.63 1030.33 1444.11C1132.4 1420.62 1225.76 1378.18 1307.54 1312.09C1387.8 1247.25 1452.47 1169.42 1497.6 1076.23C1508.25 1054.26 1516.8 1031.19 1526.37 1008.71C1528.94 1002.37 1534.45 997.623 1541.24 996.721C1549.53 995.622 1557.95 995.049 1566.64 994.939C1572.51 994.864 1577.27 1000.4 1575.6 1006.03C1567.04 1034.13 1555.97 1061.22 1543.31 1087.64C1490.47 1198.19 1414.31 1289.44 1316.17 1362.5C1249.75 1411.9 1176.86 1449.14 1097.68 1473.55C1051.13 1487.89 1003.66 1496.87 955.345 1502.23C914.162 1506.76 872.979 1508.44 831.713 1505.59C755.471 1500.39 681.745 1483.95 610.451 1456.44C518.272 1420.79 436.578 1368.62 365.368 1300.52C305.901 1243.65 257.254 1178.48 220.516 1104.58C204.916 1073.13 191.663 1040.75 179.25 1007.96C178.194 1005.42 176.805 1002.92 176.403 1000.14Z" fill="#B24FFF"/>
<mask id="mask3_1308_651" style="mask-type:luminance" maskUnits="userSpaceOnUse" x="176" y="993" width="1400" height="514">
<path d="M176.442 1000.14C175.964 996.835 178.891 993.545 182.225 993.697C190.231 994.147 198.208 994.747 206.315 995.781C216.825 997.121 225.926 1004.18 229.698 1014.08C261.151 1095.61 305.605 1169.16 364.149 1234.08C419.423 1295.39 484.09 1344.46 557.313 1382.46C605.29 1407.37 655.447 1426.49 707.701 1439.91C741.754 1448.63 776.311 1453.83 811.287 1457.27C885.013 1464.57 958.236 1460.63 1030.37 1444.11C1132.44 1420.62 1225.8 1378.18 1307.57 1312.09C1387.84 1247.25 1452.51 1169.41 1497.64 1076.23C1508.29 1054.25 1516.84 1031.19 1526.4 1008.71C1528.98 1002.36 1534.49 997.619 1541.28 996.717C1549.57 995.618 1557.98 995.045 1566.68 994.935C1572.55 994.86 1577.31 1000.4 1575.64 1006.03C1567.08 1034.12 1556.01 1061.22 1543.35 1087.64C1490.51 1198.18 1414.35 1289.44 1316.21 1362.49C1249.78 1411.9 1176.9 1449.14 1097.72 1473.55C1051.17 1487.89 1003.7 1496.86 955.384 1502.23C914.201 1506.76 873.018 1508.44 831.752 1505.59C755.51 1500.39 681.784 1483.95 610.49 1456.43C518.311 1420.79 436.617 1368.62 365.407 1300.51C305.94 1243.64 257.293 1178.47 220.555 1104.58C204.955 1073.13 191.702 1040.75 179.289 1007.96C178.233 1005.42 176.844 1002.92 176.442 1000.14Z" fill="white"/>
</mask>
<g mask="url(#mask3_1308_651)">
</g>
<mask id="mask4_1308_651" style="mask-type:luminance" maskUnits="userSpaceOnUse" x="176" y="993" width="1400" height="514">
<path d="M176.442 1000.14C175.964 996.835 178.891 993.545 182.225 993.697C190.231 994.147 198.208 994.747 206.315 995.781C216.825 997.121 225.926 1004.18 229.698 1014.08C261.151 1095.61 305.605 1169.16 364.149 1234.08C419.423 1295.39 484.09 1344.46 557.313 1382.46C605.29 1407.37 655.447 1426.49 707.701 1439.91C741.754 1448.63 776.311 1453.83 811.287 1457.27C885.013 1464.57 958.236 1460.63 1030.37 1444.11C1132.44 1420.62 1225.8 1378.18 1307.57 1312.09C1387.84 1247.25 1452.51 1169.41 1497.64 1076.23C1508.29 1054.25 1516.84 1031.19 1526.4 1008.71C1528.98 1002.36 1534.49 997.619 1541.28 996.717C1549.57 995.618 1557.98 995.045 1566.68 994.935C1572.55 994.86 1577.31 1000.4 1575.64 1006.03C1567.08 1034.12 1556.01 1061.22 1543.35 1087.64C1490.51 1198.18 1414.35 1289.44 1316.21 1362.49C1249.78 1411.9 1176.9 1449.14 1097.72 1473.55C1051.17 1487.89 1003.7 1496.86 955.384 1502.23C914.201 1506.76 873.018 1508.44 831.752 1505.59C755.51 1500.39 681.784 1483.95 610.49 1456.43C518.311 1420.79 436.617 1368.62 365.407 1300.51C305.94 1243.64 257.293 1178.47 220.555 1104.58C204.955 1073.13 191.702 1040.75 179.289 1007.96C178.233 1005.42 176.844 1002.92 176.442 1000.14Z" fill="white"/>
</mask>
<g mask="url(#mask4_1308_651)">
<path d="M1320.47 993.695H433.657C291.538 993.695 176.328 1108.91 176.328 1251.02C176.328 1393.14 291.538 1508.35 433.657 1508.35H1320.47C1462.58 1508.35 1577.79 1393.14 1577.79 1251.02C1577.79 1108.91 1462.58 993.695 1320.47 993.695Z" fill="#B24FFF"/>
</g>
<path d="M1175.24 1116.31C1171.93 1117.8 1168.88 1113.57 1170.23 1110.2C1171.38 1107.35 1172.36 1104.91 1173.39 1102.47C1186.23 1072.36 1197.38 1041.74 1202.25 1009.2C1205.94 984.875 1207.7 960.552 1204.43 935.976C1204.09 933.124 1203.76 930.273 1203 927.421C1202.25 924.402 1200.07 922.556 1196.96 922.053C1195.03 921.802 1193.11 921.717 1191.26 921.55C1120.55 915.595 1058.65 888.755 1004.14 843.714C976.876 821.151 953.894 794.815 935.777 764.536C904.073 711.695 891.407 654.24 898.872 593.096C903.989 551.829 921.351 515.847 952.049 487.078C957.585 481.877 963.875 477.264 970.25 472.987C975.786 469.296 978.889 464.851 980.399 458.225C989.206 419.558 1011.1 390.118 1045.74 371.079C1090.69 346.419 1135.15 349.187 1177.92 376.95C1209.04 397.164 1228.25 426.52 1238.99 461.579C1244.44 479.445 1249.22 497.646 1255.51 515.26C1295.1 626.981 1360.94 720.418 1452.28 795.905C1485.33 823.248 1521.06 846.482 1557.96 868.121C1574.48 877.851 1591.18 887.413 1607.78 897.058C1608.2 897.297 1608.59 897.599 1608.96 897.938C1609.96 898.849 1609.6 901.245 1608.29 900.917C1568.61 891.019 1529.95 878.27 1492.87 860.74C1420.24 826.435 1359.93 777.033 1311.03 713.54C1271.19 661.789 1239.66 605.341 1217.01 544.196C1208.04 519.956 1200.99 494.878 1193.69 470.051C1186.65 445.979 1173.23 427.023 1152.26 413.184C1120.55 392.299 1066.12 393.054 1037.1 438.346C1029.88 449.585 1026.7 461.999 1025.36 475C1024.44 484.417 1019.11 492.748 1010.92 497.485C1007.53 499.444 1004.26 501.431 1001.12 503.601C976.037 520.963 960.436 545.371 950.791 573.721C940.306 604.586 940.81 636.207 947.184 667.66C960.52 733.586 997.342 784.163 1051.27 822.913C1098.08 856.547 1150.75 874.16 1207.95 878.941C1214.66 879.528 1221.37 879.78 1228.08 880.283C1234.37 880.787 1238.98 883.722 1241 890.013C1242.84 895.968 1245.02 901.839 1246.28 907.962C1255.42 951.409 1253.58 994.857 1244.94 1038.14C1241.5 1055.58 1237.06 1072.78 1231.27 1089.64C1228.67 1097.18 1224.47 1101.55 1216.59 1103.73C1202.67 1107.5 1189.08 1112.11 1175.24 1116.31Z" fill="#B24FFF"/>
<mask id="mask5_1308_651" style="mask-type:luminance" maskUnits="userSpaceOnUse" x="896" y="354" width="714" height="763">
<path d="M1175.22 1116.27C1171.91 1117.76 1168.86 1113.53 1170.21 1110.17C1171.36 1107.31 1172.34 1104.87 1173.37 1102.43C1186.2 1072.32 1197.36 1041.71 1202.22 1009.16C1205.91 984.84 1207.68 960.516 1204.41 935.941C1204.07 933.089 1203.73 930.238 1202.98 927.386C1202.22 924.366 1200.04 922.521 1196.94 922.018C1195.01 921.766 1193.08 921.682 1191.24 921.515C1120.53 915.559 1058.63 888.719 1004.11 843.679C976.853 821.116 953.871 794.78 935.754 764.501C904.049 711.66 891.384 654.205 898.849 593.06C903.965 551.794 921.327 515.811 952.026 487.042C957.561 481.842 963.852 477.229 970.226 472.951C975.762 469.261 978.865 464.815 980.375 458.189C989.182 419.523 1011.07 390.083 1045.71 371.043C1090.67 346.384 1135.12 349.152 1177.9 376.915C1209.02 397.128 1228.23 426.485 1238.96 461.544C1244.41 479.41 1249.19 497.611 1255.49 515.225C1295.07 626.946 1360.92 720.383 1452.26 795.87C1485.3 823.213 1521.03 846.446 1557.94 868.086C1574.46 877.816 1591.15 887.378 1607.76 897.023C1608.18 897.262 1608.56 897.563 1608.93 897.903C1609.94 898.814 1609.58 901.21 1608.26 900.881C1568.59 890.984 1529.92 878.235 1492.85 860.705C1420.22 826.4 1359.91 776.998 1311.01 713.505C1271.17 661.754 1239.63 605.306 1216.99 544.161C1208.01 519.921 1200.97 494.843 1193.67 470.016C1186.62 445.944 1173.2 426.988 1152.24 413.149C1120.53 392.264 1066.1 393.019 1037.07 438.311C1029.86 449.55 1026.67 461.964 1025.33 474.964C1024.42 484.382 1019.09 492.713 1010.9 497.45C1007.51 499.409 1004.24 501.396 1001.09 503.566C976.014 520.928 960.413 545.336 950.767 573.685C940.283 604.551 940.786 636.172 947.161 667.625C960.497 733.551 997.318 784.128 1051.25 822.878C1098.05 856.512 1150.73 874.125 1207.93 878.906C1214.64 879.493 1221.35 879.745 1228.06 880.248C1234.35 880.751 1238.96 883.687 1240.97 889.978C1242.82 895.933 1245 901.804 1246.26 907.927C1255.4 951.374 1253.56 994.821 1244.92 1038.1C1241.48 1055.55 1237.03 1072.74 1231.25 1089.6C1228.65 1097.15 1224.45 1101.51 1216.57 1103.69C1202.64 1107.47 1189.06 1112.08 1175.22 1116.27Z" fill="white"/>
</mask>
<g mask="url(#mask5_1308_651)">
<path d="M896.843 1115.13V349.269C896.843 347.763 895.622 346.543 894.117 346.543C892.611 346.543 891.391 347.763 891.391 349.269V1115.13C891.391 1116.64 892.611 1117.86 894.117 1117.86C895.622 1117.86 896.843 1116.64 896.843 1115.13Z" fill="#B24FFF"/>
</g>
<mask id="mask6_1308_651" style="mask-type:luminance" maskUnits="userSpaceOnUse" x="896" y="354" width="714" height="763">
<path d="M1175.22 1116.27C1171.91 1117.76 1168.86 1113.53 1170.21 1110.17C1171.36 1107.31 1172.34 1104.87 1173.37 1102.43C1186.2 1072.32 1197.36 1041.71 1202.22 1009.16C1205.91 984.84 1207.68 960.516 1204.41 935.941C1204.07 933.089 1203.73 930.238 1202.98 927.386C1202.22 924.366 1200.04 922.521 1196.94 922.018C1195.01 921.766 1193.08 921.682 1191.24 921.515C1120.53 915.559 1058.63 888.719 1004.11 843.679C976.853 821.116 953.871 794.78 935.754 764.501C904.049 711.66 891.384 654.205 898.849 593.06C903.965 551.794 921.327 515.811 952.026 487.042C957.561 481.842 963.852 477.229 970.226 472.951C975.762 469.261 978.865 464.815 980.375 458.189C989.182 419.523 1011.07 390.083 1045.71 371.043C1090.67 346.384 1135.12 349.152 1177.9 376.915C1209.02 397.128 1228.23 426.485 1238.96 461.544C1244.41 479.41 1249.19 497.611 1255.49 515.225C1295.07 626.946 1360.92 720.383 1452.26 795.87C1485.3 823.213 1521.03 846.446 1557.94 868.086C1574.46 877.816 1591.15 887.378 1607.76 897.023C1608.18 897.262 1608.56 897.563 1608.93 897.903C1609.94 898.814 1609.58 901.21 1608.26 900.881C1568.59 890.984 1529.92 878.235 1492.85 860.705C1420.22 826.4 1359.91 776.998 1311.01 713.505C1271.17 661.754 1239.63 605.306 1216.99 544.161C1208.01 519.921 1200.97 494.843 1193.67 470.016C1186.62 445.944 1173.2 426.988 1152.24 413.149C1120.53 392.264 1066.1 393.019 1037.07 438.311C1029.86 449.55 1026.67 461.964 1025.33 474.964C1024.42 484.382 1019.09 492.713 1010.9 497.45C1007.51 499.409 1004.24 501.396 1001.09 503.566C976.014 520.928 960.413 545.336 950.767 573.685C940.283 604.551 940.786 636.172 947.161 667.625C960.497 733.551 997.318 784.128 1051.25 822.878C1098.05 856.512 1150.73 874.125 1207.93 878.906C1214.64 879.493 1221.35 879.745 1228.06 880.248C1234.35 880.751 1238.96 883.687 1240.97 889.978C1242.82 895.933 1245 901.804 1246.26 907.927C1255.4 951.374 1253.56 994.821 1244.92 1038.1C1241.48 1055.55 1237.03 1072.74 1231.25 1089.6C1228.65 1097.15 1224.45 1101.51 1216.57 1103.69C1202.64 1107.47 1189.06 1112.08 1175.22 1116.27Z" fill="white"/>
</mask>
<g mask="url(#mask6_1308_651)">
<path d="M1610.88 760.801V703.599C1610.88 506.402 1451.02 346.543 1253.82 346.543C1056.62 346.543 896.766 506.402 896.766 703.598V760.801C896.766 957.998 1056.62 1117.86 1253.82 1117.86C1451.02 1117.86 1610.88 957.998 1610.88 760.801Z" fill="#B24FFF"/>
</g>
<path d="M185.521 891.08C176.021 893.734 172.456 883.676 180.99 878.729C222.089 854.657 261.929 828.907 298.583 798.377C358.469 748.388 408.71 690.094 448.299 622.743C476.985 574.011 498.624 522.428 512.883 467.658C522.109 432.095 541.317 402.823 570.924 380.764C603.468 356.524 639.953 348.639 678.704 358.956C725.674 371.453 757.378 401.481 770.798 449.289C771.469 451.638 772.224 453.903 772.392 456.335C773.315 465.142 778.179 470.426 785.477 475.542C807.62 490.975 823.472 512.028 835.55 535.848C846.789 557.991 852.493 581.644 854.673 606.303C858.783 653.021 848.97 697.056 829.427 739.161C801.832 798.544 758.636 843.586 702.692 876.968C668.135 897.601 630.811 911.189 591.306 918.57C582.415 920.247 573.189 920.583 564.131 921.505C563.585 921.561 563.038 921.62 562.49 921.68C557.19 922.263 552.236 925.767 551.13 930.983C545.762 955.726 546.349 980.553 550.291 1005.46C555.995 1041.45 568.744 1074.91 584.68 1107.46C585.938 1109.97 586.777 1112.66 587.783 1115.34C588.05 1116.14 586.739 1116.69 585.959 1117.01C585.475 1117.21 585 1117.36 584.596 1117.27C569.834 1113.08 555.156 1108.63 540.31 1104.6C532.09 1102.34 526.974 1097.22 524.29 1089.51C520.348 1078.18 516.322 1066.86 513.218 1055.29C504.579 1023.66 499.295 991.541 500.805 958.494C501.811 936.267 505.586 914.628 511.373 893.24C514.393 882.168 515.231 881.497 527.226 880.239C538.213 879.148 549.201 878.31 560.272 877.387C624.772 871.684 680.465 846.102 728.022 802.403C757.127 775.647 779.521 744.277 794.032 707.456C807.955 671.893 813.742 635.072 808.291 597.245C802.419 556.817 782.792 524.273 748.488 501.208C745.3 499.027 741.945 497.098 738.758 495.001C738.703 494.965 738.648 494.929 738.593 494.893C732.121 490.635 727.551 483.535 727.854 475.794C729.28 431.508 691.453 403.997 658.574 400.81C613.952 396.616 577.97 425.385 563.795 459.858C560.356 468.245 557.588 477.052 555.324 485.859C540.813 542.558 517.58 595.567 487.972 645.976C465.745 683.72 440.918 719.534 411.143 751.826C369.289 797.203 320.977 833.772 264.781 859.522C253.458 864.722 242.135 870.006 230.728 875.122C217.761 880.837 201.409 886.643 185.521 891.08Z" fill="#B24FFF"/>
<mask id="mask7_1308_651" style="mask-type:luminance" maskUnits="userSpaceOnUse" x="176" y="354" width="680" height="764">
<path d="M185.529 891.073C176.029 893.726 172.464 883.668 180.998 878.721C222.096 854.649 261.937 828.9 298.59 798.369C358.477 748.38 408.718 690.087 448.307 622.735C476.992 574.004 498.632 522.42 512.891 467.65C522.117 432.087 541.324 402.815 570.932 380.756C603.476 356.516 639.961 348.632 678.711 358.948C725.681 371.446 757.386 401.473 770.806 449.281C771.477 451.63 772.232 453.895 772.4 456.327C773.323 465.134 778.187 470.418 785.484 475.534C807.627 490.967 823.48 512.02 835.558 535.84C846.797 557.983 852.5 581.636 854.681 606.295C858.791 653.014 848.978 697.048 829.435 739.153C801.84 798.537 758.644 843.578 702.7 876.96C668.143 897.593 630.819 911.181 591.314 918.562C582.423 920.239 573.197 920.575 564.138 921.497C563.592 921.553 563.046 921.612 562.498 921.672C557.198 922.255 552.244 925.76 551.138 930.975C545.77 955.719 546.357 980.545 550.299 1005.46C556.002 1041.44 568.751 1074.9 584.688 1107.45C585.946 1109.96 586.785 1112.65 587.791 1115.33C588.058 1116.13 586.747 1116.68 585.967 1117C585.483 1117.2 585.008 1117.35 584.604 1117.26C569.842 1113.07 555.164 1108.62 540.318 1104.6C532.098 1102.33 526.982 1097.22 524.298 1089.5C520.356 1078.18 516.33 1066.85 513.226 1055.28C504.587 1023.66 499.303 991.533 500.813 958.486C501.819 936.26 505.594 914.62 511.381 893.232C514.401 882.16 515.239 881.489 527.233 880.231C538.221 879.141 549.209 878.302 560.28 877.379C624.78 871.676 680.473 846.094 728.03 802.395C757.135 775.639 779.529 744.27 794.039 707.448C807.963 671.886 813.75 635.065 808.298 597.237C802.427 556.809 782.8 524.266 748.495 501.2C745.308 499.019 741.953 497.09 738.766 494.993C738.711 494.957 738.656 494.921 738.601 494.885C732.129 490.627 727.559 483.527 727.862 475.786C729.288 431.5 691.461 403.989 658.582 400.802C613.96 396.608 577.978 425.377 563.803 459.85C560.364 468.237 557.596 477.044 555.332 485.851C540.821 542.55 517.588 595.559 487.98 645.968C465.753 683.712 440.926 719.527 411.15 751.818C369.297 797.195 320.985 833.764 264.789 859.514C253.466 864.714 242.143 869.998 230.736 875.115C217.769 880.829 201.417 886.635 185.529 891.073Z" fill="white"/>
</mask>
<g mask="url(#mask7_1308_651)">
<path d="M855.52 762.805V703.17C855.52 507.317 696.75 348.547 500.897 348.547C305.044 348.547 146.273 507.317 146.273 703.17V762.805C146.273 958.658 305.044 1117.43 500.897 1117.43C696.75 1117.43 855.52 958.658 855.52 762.805Z" fill="#B24FFF"/>
</g>
<mask id="mask8_1308_651" style="mask-type:luminance" maskUnits="userSpaceOnUse" x="176" y="354" width="680" height="764">
<path d="M185.529 891.073C176.029 893.726 172.464 883.668 180.998 878.721C222.096 854.649 261.937 828.9 298.59 798.369C358.477 748.38 408.718 690.087 448.307 622.735C476.992 574.004 498.632 522.42 512.891 467.65C522.117 432.087 541.324 402.815 570.932 380.756C603.476 356.516 639.961 348.632 678.711 358.948C725.681 371.446 757.386 401.473 770.806 449.281C771.477 451.63 772.232 453.895 772.4 456.327C773.323 465.134 778.187 470.418 785.484 475.534C807.627 490.967 823.48 512.02 835.558 535.84C846.797 557.983 852.5 581.636 854.681 606.295C858.791 653.014 848.978 697.048 829.435 739.153C801.84 798.537 758.644 843.578 702.7 876.96C668.143 897.593 630.819 911.181 591.314 918.562C582.423 920.239 573.197 920.575 564.138 921.497C563.592 921.553 563.046 921.612 562.498 921.672C557.198 922.255 552.244 925.76 551.138 930.975C545.77 955.719 546.357 980.545 550.299 1005.46C556.002 1041.44 568.751 1074.9 584.688 1107.45C585.946 1109.96 586.785 1112.65 587.791 1115.33C588.058 1116.13 586.747 1116.68 585.967 1117C585.483 1117.2 585.008 1117.35 584.604 1117.26C569.842 1113.07 555.164 1108.62 540.318 1104.6C532.098 1102.33 526.982 1097.22 524.298 1089.5C520.356 1078.18 516.33 1066.85 513.226 1055.28C504.587 1023.66 499.303 991.533 500.813 958.486C501.819 936.26 505.594 914.62 511.381 893.232C514.401 882.16 515.239 881.489 527.233 880.231C538.221 879.141 549.209 878.302 560.28 877.379C624.78 871.676 680.473 846.094 728.03 802.395C757.135 775.639 779.529 744.27 794.039 707.448C807.963 671.886 813.75 635.065 808.298 597.237C802.427 556.809 782.8 524.266 748.495 501.2C745.308 499.019 741.953 497.09 738.766 494.993C738.711 494.957 738.656 494.921 738.601 494.885C732.129 490.627 727.559 483.527 727.862 475.786C729.288 431.5 691.461 403.989 658.582 400.802C613.96 396.608 577.978 425.377 563.803 459.85C560.364 468.237 557.596 477.044 555.332 485.851C540.821 542.55 517.588 595.559 487.98 645.968C465.753 683.712 440.926 719.527 411.15 751.818C369.297 797.195 320.985 833.764 264.789 859.514C253.466 864.714 242.143 869.998 230.736 875.115C217.769 880.829 201.417 886.635 185.529 891.073Z" fill="white"/>
</mask>
<g mask="url(#mask8_1308_651)">
</g>
<path d="M219.937 899.883C219.813 899.553 219.944 899.157 220.268 899.015C222.574 898.001 224.826 896.944 227.221 896.172C280.565 878.81 333.826 861.028 387.422 844.253C427.262 831.756 467.522 820.852 506.44 805.419C569.598 780.341 624.368 743.687 667.48 690.426C680.229 674.658 691.385 657.799 699.437 639.263C707.656 620.391 714.115 600.764 721.328 581.389C724.599 572.582 722.922 569.479 714.618 565.285C701.03 558.491 686.688 555.724 671.338 557.485C645.421 560.421 622.272 570.653 601.051 585.247C588.386 593.887 576.56 603.784 564.985 613.765C552.32 624.753 540.326 636.579 527.996 647.986C527.164 648.745 526.27 649.443 525.266 650.185C523.519 651.477 520.256 649.815 521.286 647.902C540.158 611.5 562.385 577.447 593.419 549.936C615.058 530.729 639.718 517.644 668.906 513.87C684.926 511.773 700.527 513.283 715.792 518.148C739.78 525.78 755.381 542.807 765.865 564.866C768.298 569.982 769.304 575.937 769.808 581.557C770.143 585.08 768.466 588.938 767.207 592.461C765.446 597.409 762.846 602.106 761.42 607.139C741.122 678.013 699.772 734.293 642.234 779.418C601.387 811.458 556.262 835.446 506.944 851.382C467.69 864.048 428.185 876.377 387.254 882.5C352.11 887.784 316.799 891.643 281.572 895.501C261.279 897.746 240.904 898.755 220.61 900.325C220.31 900.348 220.043 900.164 219.937 899.883Z" fill="#B24FFF"/>
<mask id="mask9_1308_651" style="mask-type:luminance" maskUnits="userSpaceOnUse" x="219" y="512" width="551" height="389">
<path d="M219.976 899.887C219.852 899.557 219.983 899.161 220.307 899.019C222.613 898.005 224.865 896.948 227.26 896.176C280.604 878.813 333.865 861.032 387.461 844.257C427.301 831.76 467.561 820.856 506.479 805.423C569.637 780.344 624.408 743.691 667.519 690.43C680.268 674.662 691.424 657.803 699.476 639.267C707.695 620.395 714.154 600.768 721.367 581.393C724.638 572.586 722.961 569.483 714.657 565.289C701.069 558.495 686.727 555.727 671.378 557.489C645.46 560.424 622.311 570.657 601.09 585.251C588.425 593.89 576.599 603.788 565.024 613.769C552.359 624.756 540.365 636.583 528.035 647.99C527.203 648.749 526.309 649.447 525.305 650.189C523.558 651.481 520.295 649.819 521.325 647.906C540.197 611.504 562.424 577.451 593.458 549.94C615.097 530.732 639.757 517.648 668.945 513.874C684.965 511.777 700.566 513.287 715.831 518.151C739.82 525.784 755.42 542.81 765.905 564.87C768.337 569.986 769.343 575.941 769.847 581.561C770.182 585.084 768.505 588.942 767.247 592.465C765.485 597.413 762.885 602.11 761.459 607.143C741.161 678.017 699.811 734.297 642.273 779.422C601.426 811.462 556.301 835.45 506.983 851.386C467.729 864.052 428.224 876.381 387.293 882.504C352.149 887.788 316.838 891.646 281.611 895.505C261.318 897.75 240.943 898.759 220.649 900.329C220.349 900.352 220.082 900.168 219.976 899.887Z" fill="white"/>
</mask>
<g mask="url(#mask9_1308_651)">
<path d="M575.508 511.719H414.049C306.719 511.719 219.711 598.727 219.711 706.057C219.711 813.387 306.719 900.395 414.049 900.395H575.508C682.838 900.395 769.847 813.387 769.847 706.057C769.847 598.727 682.838 511.719 575.508 511.719Z" fill="#B24FFF"/>
</g>
<mask id="mask10_1308_651" style="mask-type:luminance" maskUnits="userSpaceOnUse" x="219" y="512" width="551" height="389">
<path d="M219.976 899.887C219.852 899.557 219.983 899.161 220.307 899.019C222.613 898.005 224.865 896.948 227.26 896.176C280.604 878.813 333.865 861.032 387.461 844.257C427.301 831.76 467.561 820.856 506.479 805.423C569.637 780.344 624.408 743.691 667.519 690.43C680.268 674.662 691.424 657.803 699.476 639.267C707.695 620.395 714.154 600.768 721.367 581.393C724.638 572.586 722.961 569.483 714.657 565.289C701.069 558.495 686.727 555.727 671.378 557.489C645.46 560.424 622.311 570.657 601.09 585.251C588.425 593.89 576.599 603.788 565.024 613.769C552.359 624.756 540.365 636.583 528.035 647.99C527.203 648.749 526.309 649.447 525.305 650.189C523.558 651.481 520.295 649.819 521.325 647.906C540.197 611.504 562.424 577.451 593.458 549.94C615.097 530.732 639.757 517.648 668.945 513.874C684.965 511.777 700.566 513.287 715.831 518.151C739.82 525.784 755.42 542.81 765.905 564.87C768.337 569.986 769.343 575.941 769.847 581.561C770.182 585.084 768.505 588.942 767.247 592.465C765.485 597.413 762.885 602.11 761.459 607.143C741.161 678.017 699.811 734.297 642.273 779.422C601.426 811.462 556.301 835.45 506.983 851.386C467.729 864.052 428.224 876.381 387.293 882.504C352.149 887.788 316.838 891.646 281.611 895.505C261.318 897.75 240.943 898.759 220.649 900.329C220.349 900.352 220.082 900.168 219.976 899.887Z" fill="white"/>
</mask>
<g mask="url(#mask10_1308_651)">
<path d="M770.119 900.269V511.845C770.119 511.775 770.062 511.719 769.993 511.719C769.924 511.719 769.867 511.775 769.867 511.845V900.269C769.867 900.339 769.924 900.395 769.993 900.395C770.062 900.395 770.119 900.339 770.119 900.269Z" fill="#B24FFF"/>
</g>
<path d="M1226.08 641.938C1227.3 644.632 1224.15 647.231 1221.9 645.307C1205.97 631.383 1190.28 617.208 1174.34 603.453C1157.91 589.278 1139.62 577.787 1120.08 568.309C1105.99 561.515 1091.06 558.161 1075.62 557.49C1061.37 556.903 1047.95 560.006 1036.37 568.897C1029.91 573.845 1028.91 576.361 1031.25 583.659C1037.8 603.789 1044.17 623.835 1053.73 642.79C1074.03 683.134 1103.72 715.258 1138.95 742.769C1172.92 769.358 1210.91 788.565 1250.75 804.501C1284.64 818.005 1319.45 829.16 1354.34 839.645C1390.66 850.549 1426.89 861.704 1462.54 874.621C1482.42 881.75 1502.8 887.37 1522.93 893.66C1526.81 894.81 1527.81 898.625 1523.77 898.441C1490.64 897.267 1457.67 894.331 1424.8 890.221C1387.64 885.524 1350.57 879.905 1314.25 870.427C1257.38 855.581 1202.19 836.374 1151.53 805.676C1102.8 776.152 1061.7 738.492 1029.16 691.69C1019.01 677.011 1010.2 661.578 1004.16 644.803C998.124 628.112 992.588 611.253 986.801 594.478C985.039 589.362 984.452 584.246 985.542 578.878C989.233 560.845 997.453 545.496 1012.05 533.921C1032.6 517.565 1056 510.939 1082.08 513.875C1105.57 516.559 1126.45 526.036 1145.32 539.792C1154.55 546.586 1162.94 554.638 1171.41 562.354C1186.51 576.245 1213.7 614.596 1226.08 641.938Z" fill="#B24FFF"/>
<mask id="mask11_1308_651" style="mask-type:luminance" maskUnits="userSpaceOnUse" x="984" y="513" width="543" height="386">
<path d="M1226.05 641.915C1227.27 644.609 1224.12 647.208 1221.87 645.283C1205.93 631.36 1190.25 617.185 1174.31 603.43C1157.87 589.255 1139.59 577.764 1120.05 568.286C1105.96 561.492 1091.03 558.137 1075.59 557.466C1061.33 556.879 1047.91 559.982 1036.34 568.873C1029.88 573.822 1028.87 576.338 1031.22 583.635C1037.77 603.765 1044.14 623.811 1053.7 642.767C1074 683.111 1103.69 715.235 1138.92 742.746C1172.89 769.334 1210.88 788.542 1250.72 804.478C1284.61 817.982 1319.42 829.137 1354.31 839.621C1390.63 850.525 1426.86 861.681 1462.51 874.597C1482.39 881.727 1502.77 887.346 1522.9 893.637C1526.78 894.787 1527.78 898.602 1523.74 898.418C1490.61 897.244 1457.64 894.308 1424.76 890.198C1387.61 885.501 1350.53 879.881 1314.22 870.404C1257.35 855.558 1202.16 836.35 1151.5 805.652C1102.77 776.128 1061.67 738.468 1029.13 691.666C1018.98 676.988 1010.17 661.555 1004.13 644.78C998.092 628.089 992.557 611.23 986.769 594.455C985.008 589.338 984.421 584.222 985.511 578.854C989.202 560.821 997.421 545.472 1012.02 533.897C1032.57 517.542 1055.97 510.916 1082.05 513.851C1105.54 516.535 1126.42 526.013 1145.29 539.768C1154.52 546.562 1162.91 554.614 1171.38 562.331C1186.48 576.221 1213.67 614.573 1226.05 641.915Z" fill="white"/>
</mask>
<g mask="url(#mask11_1308_651)">
<path d="M985.081 899.879V511.287C985.081 511.148 984.969 511.035 984.83 511.035C984.691 511.035 984.578 511.148 984.578 511.287V899.879C984.578 900.018 984.691 900.131 984.83 900.131C984.969 900.131 985.081 900.018 985.081 899.879Z" fill="#B24FFF"/>
</g>
<mask id="mask12_1308_651" style="mask-type:luminance" maskUnits="userSpaceOnUse" x="984" y="513" width="543" height="386">
<path d="M1226.05 641.915C1227.27 644.609 1224.12 647.208 1221.87 645.283C1205.93 631.36 1190.25 617.185 1174.31 603.43C1157.87 589.255 1139.59 577.764 1120.05 568.286C1105.96 561.492 1091.03 558.137 1075.59 557.466C1061.33 556.879 1047.91 559.982 1036.34 568.873C1029.88 573.822 1028.87 576.338 1031.22 583.635C1037.77 603.765 1044.14 623.811 1053.7 642.767C1074 683.111 1103.69 715.235 1138.92 742.746C1172.89 769.334 1210.88 788.542 1250.72 804.478C1284.61 817.982 1319.42 829.137 1354.31 839.621C1390.63 850.525 1426.86 861.681 1462.51 874.597C1482.39 881.727 1502.77 887.346 1522.9 893.637C1526.78 894.787 1527.78 898.602 1523.74 898.418C1490.61 897.244 1457.64 894.308 1424.76 890.198C1387.61 885.501 1350.53 879.881 1314.22 870.404C1257.35 855.558 1202.16 836.35 1151.5 805.652C1102.77 776.128 1061.67 738.468 1029.13 691.666C1018.98 676.988 1010.17 661.555 1004.13 644.78C998.092 628.089 992.557 611.23 986.769 594.455C985.008 589.338 984.421 584.222 985.511 578.854C989.202 560.821 997.421 545.472 1012.02 533.897C1032.57 517.542 1055.97 510.916 1082.05 513.851C1105.54 516.535 1126.42 526.013 1145.29 539.768C1154.52 546.562 1162.91 554.614 1171.38 562.331C1186.48 576.221 1213.67 614.573 1226.05 641.915Z" fill="white"/>
</mask>
<g mask="url(#mask12_1308_651)">
<path d="M1335.29 511.035H1179.7C1072.26 511.035 985.156 598.137 985.156 705.583C985.156 813.029 1072.26 900.131 1179.7 900.131H1335.29C1442.74 900.131 1529.84 813.029 1529.84 705.583C1529.84 598.137 1442.74 511.035 1335.29 511.035Z" fill="#B24FFF"/>
</g>
<path d="M1144.17 975.556C1144.86 966.315 1152.73 958.782 1161.92 957.614C1164.6 957.274 1167.27 957.073 1169.96 957.063C1175.05 957.043 1180.06 960.906 1179.9 965.995C1178.98 985.202 1175.96 1004.16 1171.51 1022.86C1169.75 1030.24 1165.56 1034.44 1158.68 1036.95C1144.26 1042.24 1129.83 1047.44 1115.65 1053.39C1017.18 1095.25 930.542 1154.38 856.9 1232.05C819.743 1271.22 788.961 1315.17 763.715 1362.97C756.334 1376.98 749.12 1391.07 741.823 1405.08C738.406 1411.77 731.042 1415.6 723.617 1414.49C714.868 1413.17 705.153 1410.79 697.668 1408.12C693.225 1406.53 690.789 1401.45 692.84 1397.2C727.816 1322.8 773.025 1255.28 829.305 1195.31C864.532 1157.73 903.282 1124.18 945.723 1094.91C992.022 1062.87 1041.26 1036.03 1092.34 1012.46C1104.08 1007.01 1115.82 1001.39 1127.82 996.693C1137.8 992.751 1143.75 986.712 1144.17 975.556Z" fill="#B24FFF"/>
<mask id="mask13_1308_651" style="mask-type:luminance" maskUnits="userSpaceOnUse" x="692" y="957" width="488" height="458">
<path d="M1144.16 975.552C1144.84 966.311 1152.72 958.778 1161.91 957.611C1164.59 957.27 1167.25 957.069 1169.94 957.059C1175.03 957.039 1180.05 960.903 1179.89 965.991C1178.96 985.198 1175.94 1004.15 1171.5 1022.86C1169.74 1030.24 1165.54 1034.43 1158.67 1036.95C1144.24 1042.23 1129.81 1047.43 1115.64 1053.39C1017.17 1095.24 930.526 1154.37 856.884 1232.04C819.727 1271.21 788.945 1315.16 763.699 1362.97C756.318 1376.98 749.105 1391.07 741.808 1405.08C738.39 1411.76 731.027 1415.6 723.601 1414.48C714.853 1413.17 705.137 1410.79 697.652 1408.11C693.209 1406.52 690.773 1401.44 692.825 1397.19C727.801 1322.79 773.009 1255.28 829.289 1195.3C864.517 1157.73 903.267 1124.18 945.708 1094.91C992.007 1062.87 1041.24 1036.03 1092.32 1012.46C1104.06 1007.01 1115.81 1001.39 1127.8 996.689C1137.78 992.747 1143.74 986.708 1144.16 975.552Z" fill="white"/>
</mask>
<g mask="url(#mask13_1308_651)">
<path d="M950.105 956.074H920.078C793.13 956.074 690.219 1058.99 690.219 1185.93C690.219 1312.88 793.13 1415.79 920.078 1415.79H950.105C1077.05 1415.79 1179.96 1312.88 1179.96 1185.93C1179.96 1058.99 1077.05 956.074 950.105 956.074Z" fill="#B24FFF"/>
</g>
<mask id="mask14_1308_651" style="mask-type:luminance" maskUnits="userSpaceOnUse" x="692" y="957" width="488" height="458">
<path d="M1144.16 975.552C1144.84 966.311 1152.72 958.778 1161.91 957.611C1164.59 957.27 1167.25 957.069 1169.94 957.059C1175.03 957.039 1180.05 960.903 1179.89 965.991C1178.96 985.198 1175.94 1004.15 1171.5 1022.86C1169.74 1030.24 1165.54 1034.43 1158.67 1036.95C1144.24 1042.23 1129.81 1047.43 1115.64 1053.39C1017.17 1095.24 930.526 1154.37 856.884 1232.04C819.727 1271.21 788.945 1315.16 763.699 1362.97C756.318 1376.98 749.105 1391.07 741.808 1405.08C738.39 1411.76 731.027 1415.6 723.601 1414.48C714.853 1413.17 705.137 1410.79 697.652 1408.11C693.209 1406.52 690.773 1401.44 692.825 1397.19C727.801 1322.79 773.009 1255.28 829.289 1195.3C864.517 1157.73 903.267 1124.18 945.708 1094.91C992.007 1062.87 1041.24 1036.03 1092.32 1012.46C1104.06 1007.01 1115.81 1001.39 1127.8 996.689C1137.78 992.747 1143.74 986.708 1144.16 975.552Z" fill="white"/>
</mask>
<g mask="url(#mask14_1308_651)">
</g>
<path d="M1277.88 924.553C1275.06 904.193 1290.95 887.108 1311.03 891.524C1315.13 892.447 1317.57 895.299 1318.41 899.493C1320.25 908.887 1322.01 918.364 1324.03 927.758C1325.38 934.213 1330.41 939.778 1336.94 938.848C1338.68 938.599 1340.37 938.256 1342.06 938.075C1398.84 931.533 1455.71 927.171 1512.83 925.494C1565.25 923.984 1617.42 927.087 1669.26 934.72C1694.92 938.494 1720.33 943.359 1745.25 950.656C1747.84 951.384 1750.27 952.738 1752.77 953.887C1752.95 953.97 1753.09 953.999 1753.18 954.174C1753.55 954.829 1753.49 955.772 1753.08 956.405C1751.9 958.269 1749.58 957.713 1747.76 957.785C1732.41 958.289 1717.06 958.205 1701.71 958.96C1651.39 961.476 1601.06 963.824 1550.82 966.928C1506.79 969.696 1462.75 973.219 1418.8 977.077C1391.13 979.509 1363.45 982.948 1335.85 986.135C1326.88 987.142 1325.54 988.484 1324.7 997.962C1322.6 1020.44 1318.66 1042.67 1312.53 1064.39C1311.53 1068.08 1310.44 1071.77 1309.26 1075.46C1308.26 1078.9 1305.99 1081.5 1302.55 1082.34C1289.05 1085.44 1275.46 1088.38 1261.96 1091.4C1260.51 1091.76 1260.09 1089.11 1260.37 1087.64C1262.73 1075.33 1267.89 1063.4 1270.18 1050.72C1272.61 1037.05 1275.8 1023.46 1277.56 1009.7C1279.24 996.368 1280.24 982.948 1280.41 969.528C1280.49 955.605 1279.74 941.681 1278.31 927.842C1278.17 926.745 1278.03 925.649 1277.88 924.553Z" fill="#B24FFF"/>
<mask id="mask15_1308_651" style="mask-type:luminance" maskUnits="userSpaceOnUse" x="1260" y="890" width="494" height="202">
<path d="M1277.85 924.53C1275.03 904.17 1290.92 887.084 1310.99 891.501C1315.1 892.424 1317.54 895.275 1318.37 899.469C1320.22 908.863 1321.98 918.341 1323.99 927.735C1325.35 934.19 1330.38 939.755 1336.91 938.824C1338.65 938.576 1340.34 938.232 1342.03 938.051C1398.81 931.509 1455.68 927.148 1512.8 925.47C1565.22 923.96 1617.39 927.064 1669.22 934.696C1694.89 938.471 1720.3 943.335 1745.21 950.633C1747.8 951.361 1750.24 952.714 1752.74 953.864C1752.92 953.947 1753.05 953.976 1753.15 954.15C1753.52 954.805 1753.46 955.749 1753.05 956.381C1751.87 958.246 1749.55 957.689 1747.73 957.762C1732.38 958.265 1717.03 958.182 1701.68 958.936C1651.36 961.453 1601.03 963.801 1550.79 966.904C1506.76 969.672 1462.72 973.195 1418.77 977.053C1391.09 979.486 1363.42 982.925 1335.82 986.112C1326.85 987.118 1325.5 988.46 1324.67 997.938C1322.57 1020.42 1318.63 1042.64 1312.5 1064.37C1311.5 1068.06 1310.41 1071.75 1309.23 1075.44C1308.23 1078.88 1305.96 1081.48 1302.52 1082.32C1289.02 1085.42 1275.43 1088.36 1261.93 1091.37C1260.48 1091.74 1260.06 1089.09 1260.34 1087.62C1262.7 1075.31 1267.86 1063.37 1270.15 1050.7C1272.58 1037.02 1275.77 1023.44 1277.53 1009.68C1279.21 996.345 1280.21 982.924 1280.38 969.504C1280.46 955.581 1279.71 941.658 1278.28 927.819C1278.14 926.721 1278 925.625 1277.85 924.53Z" fill="white"/>
</mask>
<g mask="url(#mask15_1308_651)">
<path d="M1650.02 884.703H1363C1305.93 884.703 1259.66 930.967 1259.66 988.037C1259.66 1045.11 1305.93 1091.37 1363 1091.37H1650.02C1707.09 1091.37 1753.35 1045.11 1753.35 988.037C1753.35 930.967 1707.09 884.703 1650.02 884.703Z" fill="#B24FFF"/>
</g>
<path d="M10.3045 958.331C5.51867 957.915 5.86539 952.065 10.4844 950.746C65.4224 935.9 121.199 927.344 178.15 925.751C246.425 923.906 314.447 927.932 382.302 934.809C392.283 935.816 402.264 937.661 412.245 938.919C422.046 940.167 428.457 933.314 430.004 923.556C430.083 923.055 430.173 922.556 430.278 922.061C431.956 914.596 433.298 907.047 435.143 899.582C436.066 895.724 438.414 892.369 442.44 891.194C451.766 888.611 461.187 886.737 471.307 886.001C476.816 885.6 481.775 890.533 480.436 895.891C472.132 929.357 470.287 963.159 473.642 997.38C476.158 1023.3 481.694 1048.54 489.578 1073.29C490.652 1076.61 491.85 1079.87 492.888 1083.43C494.006 1087.26 491.018 1092.04 487.146 1091.07C477.332 1088.64 467.687 1085.7 457.957 1083.27C451.75 1081.76 447.64 1078.49 445.879 1072.28C443.111 1062.55 439.84 1052.99 437.743 1043.18C434.64 1028.67 432.459 1013.9 429.775 999.225C429.668 998.62 429.56 998.017 429.452 997.413C428.364 991.351 423.908 985.763 417.781 985.134C381.966 981.528 346.236 977.25 310.337 974.65C239.463 969.534 168.589 965.004 97.7143 960.811C70.8743 959.217 43.9505 959.217 17.1105 958.462C14.8633 958.462 12.5892 958.529 10.3045 958.331Z" fill="#B24FFF"/>
<mask id="mask16_1308_651" style="mask-type:luminance" maskUnits="userSpaceOnUse" x="6" y="885" width="488" height="207">
<path d="M10.3045 958.331C5.51867 957.915 5.86539 952.065 10.4844 950.746C65.4224 935.9 121.199 927.344 178.15 925.751C246.425 923.906 314.447 927.932 382.302 934.809C392.283 935.816 402.264 937.661 412.245 938.919C422.046 940.167 428.457 933.314 430.004 923.556C430.083 923.055 430.173 922.556 430.278 922.061C431.956 914.596 433.298 907.047 435.143 899.582C436.066 895.724 438.414 892.369 442.44 891.194C451.766 888.611 461.187 886.737 471.307 886.001C476.816 885.6 481.775 890.533 480.436 895.891C472.132 929.357 470.287 963.159 473.642 997.38C476.158 1023.3 481.694 1048.54 489.578 1073.29C490.652 1076.61 491.85 1079.87 492.888 1083.43C494.006 1087.26 491.018 1092.04 487.146 1091.07C477.332 1088.64 467.687 1085.7 457.957 1083.27C451.75 1081.76 447.64 1078.49 445.879 1072.28C443.111 1062.55 439.84 1052.99 437.743 1043.18C434.64 1028.67 432.459 1013.9 429.775 999.225C429.668 998.62 429.56 998.017 429.452 997.413C428.364 991.351 423.908 985.763 417.781 985.134C381.966 981.528 346.236 977.25 310.337 974.65C239.463 969.534 168.589 965.004 97.7143 960.811C70.8743 959.217 43.9505 959.217 17.1105 958.462C14.8633 958.462 12.5892 958.529 10.3045 958.331Z" fill="white"/>
</mask>
<g mask="url(#mask16_1308_651)">
<path d="M391.486 885.656H103.04C46.1327 885.656 0 931.789 0 988.697C0 1045.6 46.1328 1091.74 103.04 1091.74H391.486C448.394 1091.74 494.527 1045.6 494.527 988.697C494.527 931.789 448.394 885.656 391.486 885.656Z" fill="#B24FFF"/>
</g>
<path d="M1154.48 1066.35C1156.9 1065.72 1160.33 1067.78 1159.21 1070.02C1152 1086.79 1144.78 1103.48 1137.57 1120.26C1135.56 1124.87 1131.87 1127.81 1127.34 1129.99C1121.72 1132.67 1116.1 1135.44 1110.48 1138.04C1039.94 1171.17 975.777 1213.7 920.922 1269.39C887.121 1303.78 858.268 1342.03 834.867 1384.3C828.828 1395.2 822.956 1406.19 816.917 1417.18C812.857 1424.7 805.01 1429.53 796.507 1428.67C787.754 1427.79 778.117 1425.81 770.566 1423.27C767.617 1422.27 765.344 1418.98 766.676 1416.17C789.239 1369.96 813.143 1324.5 846.274 1284.65C882.592 1240.96 923.019 1201.45 969.067 1167.82C1024.76 1127.14 1084.9 1094.43 1148.73 1068.26C1150.44 1067.45 1152.3 1066.92 1154.48 1066.35Z" fill="#B24FFF"/>
<mask id="mask17_1308_651" style="mask-type:luminance" maskUnits="userSpaceOnUse" x="766" y="1066" width="394" height="363">
<path d="M1154.47 1066.34C1156.89 1065.71 1160.32 1067.78 1159.2 1070.01C1151.99 1086.79 1144.78 1103.48 1137.56 1120.25C1135.55 1124.87 1131.86 1127.8 1127.33 1129.98C1121.71 1132.67 1116.09 1135.43 1110.47 1138.03C1039.93 1171.16 975.769 1213.69 920.915 1269.38C887.113 1303.77 858.26 1342.02 834.859 1384.29C828.82 1395.19 822.949 1406.18 816.91 1417.17C812.849 1424.69 805.002 1429.52 796.499 1428.67C787.746 1427.79 778.109 1425.8 770.558 1423.26C767.609 1422.27 765.336 1418.98 766.669 1416.16C789.231 1369.95 813.135 1324.49 846.266 1284.65C882.584 1240.95 923.011 1201.44 969.059 1167.81C1024.75 1127.13 1084.89 1094.42 1148.72 1068.25C1150.43 1067.44 1152.29 1066.91 1154.47 1066.34Z" fill="white"/>
</mask>
<g mask="url(#mask17_1308_651)">
<path d="M976.972 1065.07H947.951C847.199 1065.07 765.523 1146.74 765.523 1247.49C765.523 1348.25 847.199 1429.92 947.951 1429.92H976.972C1077.72 1429.92 1159.4 1348.25 1159.4 1247.49C1159.4 1146.74 1077.72 1065.07 976.972 1065.07Z" fill="#B24FFF"/>
</g>
<mask id="mask18_1308_651" style="mask-type:luminance" maskUnits="userSpaceOnUse" x="766" y="1066" width="394" height="363">
<path d="M1154.47 1066.34C1156.89 1065.71 1160.32 1067.78 1159.2 1070.01C1151.99 1086.79 1144.78 1103.48 1137.56 1120.25C1135.55 1124.87 1131.86 1127.8 1127.33 1129.98C1121.71 1132.67 1116.09 1135.43 1110.47 1138.03C1039.93 1171.16 975.769 1213.69 920.915 1269.38C887.113 1303.77 858.26 1342.02 834.859 1384.29C828.82 1395.19 822.949 1406.18 816.91 1417.17C812.849 1424.69 805.002 1429.52 796.499 1428.67C787.746 1427.79 778.109 1425.8 770.558 1423.26C767.609 1422.27 765.336 1418.98 766.669 1416.16C789.231 1369.95 813.135 1324.49 846.266 1284.65C882.584 1240.95 923.011 1201.44 969.059 1167.81C1024.75 1127.13 1084.89 1094.42 1148.72 1068.25C1150.43 1067.44 1152.29 1066.91 1154.47 1066.34Z" fill="white"/>
</mask>
<g mask="url(#mask18_1308_651)">
<path d="M1159.57 1429.84V1065.15C1159.57 1065.1 1159.53 1065.07 1159.48 1065.07C1159.44 1065.07 1159.4 1065.1 1159.4 1065.15V1429.84C1159.4 1429.88 1159.44 1429.92 1159.48 1429.92C1159.53 1429.92 1159.57 1429.88 1159.57 1429.84Z" fill="#B24FFF"/>
</g>
<path d="M573.795 974.867C573.111 964.444 581.971 957.438 592.259 959.24C593.142 959.394 594.021 959.56 594.896 959.735C602.736 961.3 609.494 966.505 610.826 974.388C611.182 976.497 611.495 978.6 611.958 980.654C613.887 989.209 617.913 994.829 626.636 998.435C662.115 1013.11 696.755 1029.64 730.641 1047.75C772.327 1069.98 810.825 1096.9 848.485 1125.09C850.414 1126.51 852.176 1128.19 853.937 1129.78C855.511 1131.36 854.682 1134.16 853.144 1135.77C847.277 1141.9 841.022 1147.79 834.474 1153.68C828.605 1158.96 819.665 1159.7 813.426 1154.86C755.636 1110.41 693.317 1073.84 625.042 1047.84C614.306 1043.73 603.57 1039.37 592.834 1035.34C586.376 1032.91 582.937 1028.55 581.427 1021.75C577.989 1006.24 574.634 990.803 573.795 974.867Z" fill="#B24FFF"/>
<mask id="mask19_1308_651" style="mask-type:luminance" maskUnits="userSpaceOnUse" x="573" y="958" width="282" height="201">
<path d="M573.803 974.867C573.119 964.444 581.978 957.438 592.267 959.24C593.149 959.394 594.028 959.56 594.904 959.735C602.744 961.3 609.502 966.505 610.834 974.388C611.19 976.497 611.503 978.6 611.966 980.654C613.895 989.209 617.921 994.829 626.644 998.435C662.123 1013.11 696.763 1029.64 730.649 1047.75C772.335 1069.98 810.833 1096.9 848.493 1125.09C850.422 1126.51 852.183 1128.19 853.945 1129.78C855.518 1131.36 854.69 1134.16 853.152 1135.77C847.285 1141.9 841.03 1147.79 834.481 1153.68C828.613 1158.96 819.673 1159.7 813.433 1154.86C755.644 1110.41 693.324 1073.84 625.05 1047.84C614.314 1043.73 603.578 1039.37 592.842 1035.34C586.384 1032.91 582.945 1028.55 581.435 1021.75C577.996 1006.24 574.641 990.803 573.803 974.867Z" fill="white"/>
</mask>
<g mask="url(#mask19_1308_651)">
</g>
<mask id="mask20_1308_651" style="mask-type:luminance" maskUnits="userSpaceOnUse" x="573" y="958" width="282" height="201">
<path d="M573.803 974.867C573.119 964.444 581.978 957.438 592.267 959.24C593.149 959.394 594.028 959.56 594.904 959.735C602.744 961.3 609.502 966.505 610.834 974.388C611.19 976.497 611.503 978.6 611.966 980.654C613.895 989.209 617.921 994.829 626.644 998.435C662.123 1013.11 696.763 1029.64 730.649 1047.75C772.335 1069.98 810.833 1096.9 848.493 1125.09C850.422 1126.51 852.183 1128.19 853.945 1129.78C855.518 1131.36 854.69 1134.16 853.152 1135.77C847.285 1141.9 841.03 1147.79 834.481 1153.68C828.613 1158.96 819.673 1159.7 813.433 1154.86C755.644 1110.41 693.324 1073.84 625.05 1047.84C614.314 1043.73 603.578 1039.37 592.842 1035.34C586.384 1032.91 582.945 1028.55 581.435 1021.75C577.996 1006.24 574.641 990.803 573.803 974.867Z" fill="white"/>
</mask>
<g mask="url(#mask20_1308_651)">
<path d="M753.245 957.477H675.912C619.282 957.477 573.375 1003.38 573.375 1060.01C573.375 1116.64 619.282 1162.55 675.912 1162.55H753.245C809.874 1162.55 855.782 1116.64 855.782 1060.01C855.782 1003.38 809.874 957.477 753.245 957.477Z" fill="#B24FFF"/>
</g>
<path d="M796.74 1174.03C801.906 1177.63 802.484 1185.18 798.533 1190.08C794.641 1194.91 790.795 1199.5 786.646 1203.85C782.512 1208.19 775.666 1209.69 770.655 1206.41C729.136 1179.48 685.857 1155.66 640.732 1135.36C622.531 1127.14 622.364 1127.06 614.06 1109.45C608.944 1098.63 604.666 1087.39 600.221 1076.23C598.44 1071.78 601.581 1065.99 606.012 1067.82C606.49 1068.02 606.962 1068.23 607.434 1068.43C657.423 1089.57 705.987 1113.47 751.447 1143.42C766.629 1153.4 781.726 1163.71 796.74 1174.03Z" fill="#B24FFF"/>
<mask id="mask21_1308_651" style="mask-type:luminance" maskUnits="userSpaceOnUse" x="599" y="1067" width="203" height="142">
<path d="M796.716 1174.03C801.882 1177.63 802.461 1185.17 798.51 1190.08C794.617 1194.91 790.771 1199.49 786.622 1203.85C782.489 1208.19 775.642 1209.69 770.631 1206.4C729.113 1179.48 685.834 1155.66 640.709 1135.36C622.508 1127.14 622.34 1127.06 614.037 1109.44C608.92 1098.62 604.643 1087.38 600.197 1076.23C598.416 1071.78 601.558 1065.99 605.989 1067.82C606.466 1068.02 606.938 1068.23 607.41 1068.43C657.4 1089.56 705.964 1113.47 751.424 1143.41C766.605 1153.39 781.703 1163.71 796.716 1174.03Z" fill="white"/>
</mask>
<g mask="url(#mask21_1308_651)">
<path d="M733.223 1065.98H671.072C631.095 1065.98 598.688 1098.39 598.688 1138.37C598.688 1178.35 631.095 1210.75 671.072 1210.75H733.223C773.199 1210.75 805.607 1178.35 805.607 1138.37C805.607 1098.39 773.199 1065.98 733.223 1065.98Z" fill="#B24FFF"/>
</g>
<path d="M952.785 1271.88C964.28 1259.86 982.407 1264.55 991.833 1278.25C1018.31 1316.74 1042.53 1356.07 1062.08 1398.79C1063.8 1402.54 1062.8 1408.08 1058.76 1408.92C1049.37 1410.85 1039.89 1412.53 1030.41 1414.04C1021.27 1415.46 1020.01 1414.54 1015.57 1406.49C1007.26 1391.31 999.126 1376.13 990.655 1361.11C976.899 1336.87 962.221 1313.3 944.524 1291.66C942.336 1289.01 942.512 1285.07 944.407 1282.2C946.628 1278.84 949.524 1275.29 952.785 1271.88Z" fill="#B24FFF"/>
<mask id="mask22_1308_651" style="mask-type:luminance" maskUnits="userSpaceOnUse" x="942" y="1264" width="121" height="151">
<path d="M952.778 1271.9C964.272 1259.87 982.399 1264.56 991.825 1278.27C1018.3 1316.76 1042.52 1356.08 1062.07 1398.8C1063.79 1402.55 1062.8 1408.09 1058.75 1408.93C1049.36 1410.86 1039.88 1412.54 1030.4 1414.05C1021.26 1415.47 1020 1414.55 1015.56 1406.5C1007.25 1391.32 999.118 1376.14 990.647 1361.12C976.892 1336.88 962.213 1313.31 944.516 1291.67C942.329 1289.02 942.504 1285.08 944.399 1282.21C946.621 1278.85 949.517 1275.31 952.778 1271.9Z" fill="white"/>
</mask>
<g mask="url(#mask22_1308_651)">
<path d="M1065.13 1353.66V1316.67C1065.13 1282.58 1037.49 1254.94 1003.4 1254.94C969.302 1254.94 941.664 1282.58 941.664 1316.67V1353.66C941.664 1387.76 969.302 1415.39 1003.4 1415.39C1037.49 1415.39 1065.13 1387.76 1065.13 1353.66Z" fill="#B24FFF"/>
</g>
<path d="M975.058 1385.71C985.402 1404.66 974.406 1426.29 952.873 1427.84C949.099 1428.09 946.834 1425.57 945.073 1422.47C939.789 1413.32 934.589 1404.18 929.137 1395.12C920.971 1381.62 912.711 1368.16 904.497 1354.75C899.25 1346.18 897.252 1336.45 902.599 1327.95C911.51 1313.77 931.389 1314.5 940.409 1328.62C942.938 1332.57 945.391 1336.58 947.925 1340.52C957.421 1355.2 966.534 1370.09 975.058 1385.71Z" fill="#B24FFF"/>
<mask id="mask23_1308_651" style="mask-type:luminance" maskUnits="userSpaceOnUse" x="899" y="1317" width="80" height="111">
<path d="M975.027 1385.68C985.371 1404.63 974.375 1426.26 952.842 1427.8C949.068 1428.06 946.803 1425.54 945.042 1422.44C939.758 1413.29 934.557 1404.15 929.106 1395.09C920.939 1381.59 912.679 1368.13 904.466 1354.72C899.219 1346.15 897.221 1336.42 902.568 1327.91C911.479 1313.74 931.358 1314.47 940.378 1328.58C942.907 1332.54 945.359 1336.55 947.894 1340.49C957.39 1355.17 966.503 1370.06 975.027 1385.68Z" fill="white"/>
</mask>
<g mask="url(#mask23_1308_651)">
<path d="M993.102 1379.62V1354.54C993.102 1327.79 971.416 1306.1 944.664 1306.1C917.913 1306.1 896.227 1327.79 896.227 1354.54V1379.62C896.227 1406.37 917.913 1428.06 944.664 1428.06C971.416 1428.06 993.102 1406.37 993.102 1379.62Z" fill="#B24FFF"/>
</g>
<path d="M665.816 497.143C654.744 496.472 645.35 491.356 638.808 481.626C633.272 473.491 633.44 463.677 638.808 455.961C653.402 434.824 685.946 437.173 697.269 460.07C703.811 473.239 700.12 484.478 687.12 491.44C679.99 495.13 672.358 497.227 665.816 497.143ZM659.65 463.878C659.15 459.288 653.896 455.805 649.963 458.225C646.524 460.322 644.511 464.013 644.931 467.955C645.266 471.058 646.776 474.329 648.705 476.845C649.329 477.668 650.056 478.35 650.88 478.848C655.082 481.381 659.167 475.975 659.655 471.093C659.889 468.753 659.92 466.358 659.65 463.878Z" fill="#B24FFF"/>
<mask id="mask24_1308_651" style="mask-type:luminance" maskUnits="userSpaceOnUse" x="634" y="441" width="67" height="57">
<path d="M665.847 497.167C654.775 496.496 645.381 491.379 638.839 481.65C633.303 473.514 633.471 463.701 638.839 455.984C653.433 434.848 685.977 437.196 697.3 460.094C703.842 473.262 700.152 484.502 687.151 491.463C680.022 495.154 672.389 497.251 665.847 497.167ZM659.681 463.902C659.181 459.311 653.927 455.828 649.995 458.249C646.556 460.346 644.543 464.036 644.962 467.978C645.297 471.082 646.807 474.353 648.736 476.869C649.36 477.692 650.087 478.374 650.911 478.871C655.113 481.405 659.198 475.999 659.686 471.117C659.92 468.777 659.951 466.381 659.681 463.902Z" fill="white"/>
</mask>
<g mask="url(#mask24_1308_651)">
<path d="M660.947 472.484V464.181C660.947 459.641 657.267 455.961 652.728 455.961C648.188 455.961 644.508 459.641 644.508 464.181V472.484C644.508 477.024 648.188 480.704 652.728 480.704C657.267 480.704 660.947 477.024 660.947 472.484Z" fill="#B24FFF"/>
</g>
<mask id="mask25_1308_651" style="mask-type:luminance" maskUnits="userSpaceOnUse" x="634" y="441" width="67" height="57">
<path d="M665.847 497.167C654.775 496.496 645.381 491.379 638.839 481.65C633.303 473.514 633.471 463.701 638.839 455.984C653.433 434.848 685.977 437.196 697.3 460.094C703.842 473.262 700.152 484.502 687.151 491.463C680.022 495.154 672.389 497.251 665.847 497.167ZM659.681 463.902C659.181 459.311 653.927 455.828 649.995 458.249C646.556 460.346 644.543 464.036 644.962 467.978C645.297 471.082 646.807 474.353 648.736 476.869C649.36 477.692 650.087 478.374 650.911 478.871C655.113 481.405 659.198 475.999 659.686 471.117C659.92 468.777 659.951 466.381 659.681 463.902Z" fill="white"/>
</mask>
<g mask="url(#mask25_1308_651)">
</g>
<mask id="mask26_1308_651" style="mask-type:luminance" maskUnits="userSpaceOnUse" x="634" y="441" width="67" height="57">
<path d="M665.847 497.167C654.775 496.496 645.381 491.379 638.839 481.65C633.303 473.514 633.471 463.701 638.839 455.984C653.433 434.848 685.977 437.196 697.3 460.094C703.842 473.262 700.152 484.502 687.151 491.463C680.022 495.154 672.389 497.251 665.847 497.167ZM659.681 463.902C659.181 459.311 653.927 455.828 649.995 458.249C646.556 460.346 644.543 464.036 644.962 467.978C645.297 471.082 646.807 474.353 648.736 476.869C649.36 477.692 650.087 478.374 650.911 478.871C655.113 481.405 659.198 475.999 659.686 471.117C659.92 468.777 659.951 466.381 659.681 463.902Z" fill="white"/>
</mask>
<g mask="url(#mask26_1308_651)">
<path d="M669.223 434.809H665.951C648.719 434.809 634.75 448.778 634.75 466.01C634.75 483.242 648.719 497.212 665.951 497.212H669.223C686.455 497.212 700.424 483.242 700.424 466.01C700.424 448.778 686.455 434.809 669.223 434.809Z" fill="#B24FFF"/>
</g>
<mask id="mask27_1308_651" style="mask-type:luminance" maskUnits="userSpaceOnUse" x="634" y="441" width="67" height="57">
<path d="M665.847 497.167C654.775 496.496 645.381 491.379 638.839 481.65C633.303 473.514 633.471 463.701 638.839 455.984C653.433 434.848 685.977 437.196 697.3 460.094C703.842 473.262 700.152 484.502 687.151 491.463C680.022 495.154 672.389 497.251 665.847 497.167ZM659.681 463.902C659.181 459.311 653.927 455.828 649.995 458.249C646.556 460.346 644.543 464.036 644.962 467.978C645.297 471.082 646.807 474.353 648.736 476.869C649.36 477.692 650.087 478.374 650.911 478.871C655.113 481.405 659.198 475.999 659.686 471.117C659.92 468.777 659.951 466.381 659.681 463.902Z" fill="white"/>
</mask>
<g mask="url(#mask27_1308_651)">
<path d="M703.754 495.534V436.486C703.754 435.56 703.002 434.809 702.076 434.809C701.149 434.809 700.398 435.56 700.398 436.486V495.534C700.398 496.461 701.149 497.212 702.076 497.212C703.002 497.212 703.754 496.461 703.754 495.534Z" fill="#B24FFF"/>
</g>
<path d="M1066.98 447.839C1077.78 442.267 1091.47 441.353 1102.09 447.269C1104.33 448.515 1106.46 450.032 1108.49 451.864C1118.73 461.174 1119.99 473.253 1111.01 483.653C1099.86 496.57 1083.33 499.589 1069.32 494.221C1059.68 490.531 1053.64 483.653 1053.14 472.665C1052.63 461.51 1057.5 452.955 1066.98 447.839ZM1091.47 466.123C1093.14 477.189 1110 475.614 1107.35 464.742C1107.16 463.935 1106.89 463.11 1106.57 462.265C1105.14 458.658 1101.03 456.729 1097.26 457.652C1093.65 458.491 1090.8 462.265 1091.47 466.123Z" fill="#B24FFF"/>
<mask id="mask28_1308_651" style="mask-type:luminance" maskUnits="userSpaceOnUse" x="1053" y="443" width="65" height="54">
<path d="M1067 447.866C1077.8 442.295 1091.5 441.381 1102.12 447.296C1104.35 448.543 1106.48 450.059 1108.52 451.892C1118.75 461.202 1120.01 473.28 1111.03 483.68C1099.88 496.597 1083.36 499.617 1069.35 494.249C1059.7 490.558 1053.66 483.68 1053.16 472.693C1052.66 461.537 1057.52 452.982 1067 447.866ZM1091.49 466.151C1093.16 477.216 1110.03 475.642 1107.38 464.769C1107.18 463.963 1106.92 463.138 1106.59 462.292C1105.16 458.686 1101.05 456.756 1097.28 457.679C1093.67 458.518 1090.82 462.292 1091.49 466.151Z" fill="white"/>
</mask>
<g mask="url(#mask28_1308_651)">
<path d="M1109.51 471.714V466.094C1109.51 460.929 1105.32 456.742 1100.16 456.742C1094.99 456.742 1090.8 460.929 1090.8 466.094V471.714C1090.8 476.879 1094.99 481.066 1100.16 481.066C1105.32 481.066 1109.51 476.879 1109.51 471.714Z" fill="#B24FFF"/>
</g>
<mask id="mask29_1308_651" style="mask-type:luminance" maskUnits="userSpaceOnUse" x="1053" y="443" width="65" height="54">
<path d="M1067 447.866C1077.8 442.295 1091.5 441.381 1102.12 447.296C1104.35 448.543 1106.48 450.059 1108.52 451.892C1118.75 461.202 1120.01 473.28 1111.03 483.68C1099.88 496.597 1083.36 499.617 1069.35 494.249C1059.7 490.558 1053.66 483.68 1053.16 472.693C1052.66 461.537 1057.52 452.982 1067 447.866ZM1091.49 466.151C1093.16 477.216 1110.03 475.642 1107.38 464.769C1107.18 463.963 1106.92 463.138 1106.59 462.292C1105.16 458.686 1101.05 456.756 1097.28 457.679C1093.67 458.518 1090.82 462.292 1091.49 466.151Z" fill="white"/>
</mask>
<g mask="url(#mask29_1308_651)">
</g>
<mask id="mask30_1308_651" style="mask-type:luminance" maskUnits="userSpaceOnUse" x="1053" y="443" width="65" height="54">
<path d="M1067 447.866C1077.8 442.295 1091.5 441.381 1102.12 447.296C1104.35 448.543 1106.48 450.059 1108.52 451.892C1118.75 461.202 1120.01 473.28 1111.03 483.68C1099.88 496.597 1083.36 499.617 1069.35 494.249C1059.7 490.558 1053.66 483.68 1053.16 472.693C1052.66 461.537 1057.52 452.982 1067 447.866ZM1091.49 466.151C1093.16 477.216 1110.03 475.642 1107.38 464.769C1107.18 463.963 1106.92 463.138 1106.59 462.292C1105.16 458.686 1101.05 456.756 1097.28 457.679C1093.67 458.518 1090.82 462.292 1091.49 466.151Z" fill="white"/>
</mask>
<g mask="url(#mask30_1308_651)">
<path d="M1088.49 442.414H1081.78C1065.98 442.414 1053.18 455.219 1053.18 471.015C1053.18 486.811 1065.98 499.617 1081.78 499.617H1088.49C1104.29 499.617 1117.09 486.811 1117.09 471.015C1117.09 455.219 1104.29 442.414 1088.49 442.414Z" fill="#B24FFF"/>
</g>
<mask id="mask31_1308_651" style="mask-type:luminance" maskUnits="userSpaceOnUse" x="1053" y="443" width="65" height="54">
<path d="M1067 447.866C1077.8 442.295 1091.5 441.381 1102.12 447.296C1104.35 448.543 1106.48 450.059 1108.52 451.892C1118.75 461.202 1120.01 473.28 1111.03 483.68C1099.88 496.597 1083.36 499.617 1069.35 494.249C1059.7 490.558 1053.66 483.68 1053.16 472.693C1052.66 461.537 1057.52 452.982 1067 447.866ZM1091.49 466.151C1093.16 477.216 1110.03 475.642 1107.38 464.769C1107.18 463.963 1106.92 463.138 1106.59 462.292C1105.16 458.686 1101.05 456.756 1097.28 457.679C1093.67 458.518 1090.82 462.292 1091.49 466.151Z" fill="white"/>
</mask>
<g mask="url(#mask31_1308_651)">
</g>
<path d="M649.97 458.13C653.973 455.821 659.184 459.233 659.708 463.825C659.989 466.29 659.963 468.67 659.727 470.988C659.227 475.888 655.073 481.314 650.859 478.767C650.034 478.269 649.317 477.581 648.712 476.75C646.867 474.234 645.357 470.963 644.938 467.86C644.518 463.917 646.531 460.227 649.97 458.13Z" fill="#B24FFF"/>
<mask id="mask32_1308_651" style="mask-type:luminance" maskUnits="userSpaceOnUse" x="644" y="457" width="16" height="23">
<path d="M649.986 458.157C653.989 455.848 659.2 459.261 659.724 463.852C660.005 466.317 659.979 468.697 659.742 471.016C659.243 475.915 655.089 481.342 650.874 478.794C650.05 478.296 649.332 477.609 648.728 476.778C646.883 474.261 645.373 470.99 644.953 467.887C644.534 463.945 646.547 460.254 649.986 458.157Z" fill="white"/>
</mask>
<g mask="url(#mask32_1308_651)">
<path d="M644.904 480.51V456.186C644.904 456.07 644.81 455.977 644.694 455.977C644.578 455.977 644.484 456.07 644.484 456.186V480.51C644.484 480.626 644.578 480.72 644.694 480.72C644.81 480.72 644.904 480.626 644.904 480.51Z" fill="#B24FFF"/>
</g>
<mask id="mask33_1308_651" style="mask-type:luminance" maskUnits="userSpaceOnUse" x="644" y="457" width="16" height="23">
<path d="M649.986 458.157C653.989 455.848 659.2 459.261 659.724 463.852C660.005 466.317 659.979 468.697 659.742 471.016C659.243 475.915 655.089 481.342 650.874 478.794C650.05 478.296 649.332 477.609 648.728 476.778C646.883 474.261 645.373 470.99 644.953 467.887C644.534 463.945 646.547 460.254 649.986 458.157Z" fill="white"/>
</mask>
<g mask="url(#mask33_1308_651)">
<path d="M659.912 473.213V463.483C659.912 459.337 656.551 455.977 652.405 455.977C648.259 455.977 644.898 459.337 644.898 463.483V473.213C644.898 477.359 648.259 480.72 652.405 480.72C656.551 480.72 659.912 477.359 659.912 473.213Z" fill="#B24FFF"/>
</g>
<mask id="mask34_1308_651" style="mask-type:luminance" maskUnits="userSpaceOnUse" x="644" y="457" width="16" height="23">
<path d="M649.986 458.157C653.989 455.848 659.2 459.261 659.724 463.852C660.005 466.317 659.979 468.697 659.742 471.016C659.243 475.915 655.089 481.342 650.874 478.794C650.05 478.296 649.332 477.609 648.728 476.778C646.883 474.261 645.373 470.99 644.953 467.887C644.534 463.945 646.547 460.254 649.986 458.157Z" fill="white"/>
</mask>
<g mask="url(#mask34_1308_651)">
<path d="M660.889 480.216V456.48C660.889 456.202 660.664 455.977 660.386 455.977C660.108 455.977 659.883 456.202 659.883 456.48V480.216C659.883 480.494 660.108 480.72 660.386 480.72C660.664 480.72 660.889 480.494 660.889 480.216Z" fill="#B24FFF"/>
</g>
<path d="M1107.33 464.77C1109.97 475.623 1093.1 477.185 1091.44 466.14C1090.85 462.198 1093.62 458.424 1097.23 457.669C1100.92 456.83 1105.11 458.676 1106.54 462.282C1106.87 463.13 1107.13 463.958 1107.33 464.77Z" fill="#B24FFF"/>
<mask id="mask35_1308_651" style="mask-type:luminance" maskUnits="userSpaceOnUse" x="1091" y="457" width="17" height="17">
<path d="M1107.33 464.797C1109.97 475.65 1093.1 477.212 1091.44 466.168C1090.85 462.226 1093.62 458.451 1097.23 457.696C1100.92 456.858 1105.11 458.703 1106.54 462.31C1106.87 463.157 1107.13 463.986 1107.33 464.797Z" fill="white"/>
</mask>
<g mask="url(#mask35_1308_651)">
</g>
<mask id="mask36_1308_651" style="mask-type:luminance" maskUnits="userSpaceOnUse" x="1091" y="457" width="17" height="17">
<path d="M1107.33 464.797C1109.97 475.65 1093.1 477.212 1091.44 466.168C1090.85 462.226 1093.62 458.451 1097.23 457.696C1100.92 456.858 1105.11 458.703 1106.54 462.31C1106.87 463.157 1107.13 463.986 1107.33 464.797Z" fill="white"/>
</mask>
<g mask="url(#mask36_1308_651)">
<path d="M1107.8 472.862V464.978C1107.8 460.438 1104.12 456.758 1099.58 456.758C1095.04 456.758 1091.36 460.438 1091.36 464.978V472.862C1091.36 477.401 1095.04 481.081 1099.58 481.081C1104.12 481.081 1107.8 477.401 1107.8 472.862Z" fill="#B24FFF"/>
</g>
<mask id="mask37_1308_651" style="mask-type:luminance" maskUnits="userSpaceOnUse" x="1091" y="457" width="17" height="17">
<path d="M1107.33 464.797C1109.97 475.65 1093.1 477.212 1091.44 466.168C1090.85 462.226 1093.62 458.451 1097.23 457.696C1100.92 456.858 1105.11 458.703 1106.54 462.31C1106.87 463.157 1107.13 463.986 1107.33 464.797Z" fill="white"/>
</mask>
<g mask="url(#mask37_1308_651)">
</g>
<path d="M1974.85 1333.25L1984.77 1399.08L2020.31 1262.97H2048.52L2083.79 1398.04L2094.76 1333.25L2108.35 1262.97H2140.22L2100.25 1440.62H2068.12L2033.89 1308.43L1999.4 1440.62H1967.27L1927.3 1262.97H1961.26L1974.85 1333.25Z" fill="#B24FFF"/>
<path d="M2295.46 1440.62V1365.64H2229.1V1440.62H2197.75V1262.97H2229.1V1335.6H2295.46V1262.97H2326.81V1440.62H2295.46Z" fill="#B24FFF"/>
<path d="M2504.89 1410.58V1440.62H2401.96V1262.97H2502.28V1293.01H2433.31V1335.6H2494.44V1365.64H2433.31V1410.58H2504.89Z" fill="#B24FFF"/>
<path d="M2599.5 1375.31V1440.62H2568.15V1262.97H2627.46C2645.4 1262.97 2659.16 1267.58 2668.74 1276.81C2678.49 1285.87 2683.37 1298.06 2683.37 1313.39V1324.62C2683.37 1334.73 2681.19 1343.61 2676.84 1351.27C2672.48 1358.94 2666.21 1364.77 2658.03 1368.78C2672.31 1393.16 2684.5 1417.11 2694.6 1440.62H2658.81C2650.1 1418.85 2639.74 1397.08 2627.72 1375.31H2599.5ZM2627.46 1291.71H2599.5V1346.57H2627.46C2635.12 1346.57 2640.96 1344.65 2644.96 1340.82C2649.14 1336.82 2651.23 1331.42 2651.23 1324.62V1313.39C2651.23 1306.77 2649.14 1301.55 2644.96 1297.72C2640.96 1293.71 2635.12 1291.71 2627.46 1291.71Z" fill="#B24FFF"/>
<path d="M2856.42 1410.58V1440.62H2753.48V1262.97H2853.81V1293.01H2784.83V1335.6H2845.97V1365.64H2784.83V1410.58H2856.42Z" fill="#B24FFF"/>
<path d="M3101.04 1410.58V1440.62H2998.11V1262.97H3098.43V1293.01H3029.46V1335.6H3090.59V1365.64H3029.46V1410.58H3101.04Z" fill="#B24FFF"/>
<path d="M3248.95 1440.62L3211.85 1375.57L3176.58 1440.62H3143.66L3195.65 1348.4L3146.54 1262.97H3182.07L3216.29 1322.53L3248.43 1262.97H3281.34L3232.49 1349.97L3284.48 1440.62H3248.95Z" fill="#B24FFF"/>
<path d="M3360.65 1370.34C3360.65 1383.06 3363.44 1393.51 3369.01 1401.7C3374.59 1409.71 3383.73 1413.71 3396.45 1413.71C3401.67 1413.71 3407.07 1413.02 3412.64 1411.62C3418.39 1410.23 3425.45 1407.88 3433.81 1404.57L3443.47 1431.74C3434.07 1435.92 3425.36 1438.88 3417.35 1440.62C3409.51 1442.37 3401.93 1443.24 3394.62 1443.24C3379.99 1443.24 3367.71 1440.1 3357.78 1433.83C3348.03 1427.56 3340.71 1418.94 3335.83 1407.97C3330.96 1396.99 3328.52 1384.45 3328.52 1370.34V1332.98C3328.52 1318.88 3330.96 1306.34 3335.83 1295.36C3340.71 1284.39 3348.03 1275.86 3357.78 1269.76C3367.71 1263.49 3379.99 1260.36 3394.62 1260.36C3401.76 1260.36 3409.16 1261.23 3416.82 1262.97C3424.49 1264.54 3432.85 1267.32 3441.91 1271.33L3432.24 1299.02C3424.23 1295.71 3417.52 1293.36 3412.12 1291.97C3406.72 1290.57 3401.5 1289.88 3396.45 1289.88C3383.73 1289.88 3374.59 1293.88 3369.01 1301.9C3363.44 1309.91 3360.65 1320.27 3360.65 1332.98V1370.34Z" fill="#B24FFF"/>
<path d="M3605.24 1410.58V1440.62H3502.3V1262.97H3602.63V1293.01H3533.65V1335.6H3594.79V1365.64H3533.65V1410.58H3605.24Z" fill="#B24FFF"/>
<path d="M3770.91 1410.58V1440.62H3668.5V1262.97H3699.85V1410.58H3770.91Z" fill="#B24FFF"/>
<path d="M3929.45 1410.58V1440.62H3827.04V1262.97H3858.39V1410.58H3929.45Z" fill="#B24FFF"/>
<path d="M4088.51 1410.58V1440.62H3985.58V1262.97H4085.9V1293.01H4016.93V1335.6H4078.06V1365.64H4016.93V1410.58H4088.51Z" fill="#B24FFF"/>
<path d="M4151.77 1440.62V1262.97H4180.51C4194.27 1280.91 4207.33 1299.89 4219.7 1319.92C4232.07 1339.78 4243.3 1360.24 4253.4 1381.32L4251.05 1328.28V1262.97H4281.1V1440.62H4252.36C4241.21 1418.68 4229.63 1396.64 4217.61 1374.53C4205.77 1352.23 4193.14 1331.24 4179.73 1311.56L4181.82 1372.7V1440.62H4151.77Z" fill="#B24FFF"/>
<path d="M4380.27 1370.34C4380.27 1383.06 4383.06 1393.51 4388.63 1401.7C4394.21 1409.71 4403.35 1413.71 4416.07 1413.71C4421.29 1413.71 4426.69 1413.02 4432.26 1411.62C4438.01 1410.23 4445.07 1407.88 4453.43 1404.57L4463.09 1431.74C4453.69 1435.92 4444.98 1438.88 4436.97 1440.62C4429.13 1442.37 4421.55 1443.24 4414.24 1443.24C4399.61 1443.24 4387.33 1440.1 4377.4 1433.83C4367.65 1427.56 4360.33 1418.94 4355.46 1407.97C4350.58 1396.99 4348.14 1384.45 4348.14 1370.34V1332.98C4348.14 1318.88 4350.58 1306.34 4355.46 1295.36C4360.33 1284.39 4367.65 1275.86 4377.4 1269.76C4387.33 1263.49 4399.61 1260.36 4414.24 1260.36C4421.38 1260.36 4428.78 1261.23 4436.45 1262.97C4444.11 1264.54 4452.47 1267.32 4461.53 1271.33L4451.86 1299.02C4443.85 1295.71 4437.14 1293.36 4431.74 1291.97C4426.34 1290.57 4421.12 1289.88 4416.07 1289.88C4403.35 1289.88 4394.21 1293.88 4388.63 1301.9C4383.06 1309.91 4380.27 1320.27 4380.27 1332.98V1370.34Z" fill="#B24FFF"/>
<path d="M4624.86 1410.58V1440.62H4521.92V1262.97H4622.25V1293.01H4553.27V1335.6H4614.41V1365.64H4553.27V1410.58H4624.86Z" fill="#B24FFF"/>
<path d="M4800.77 1262.97L4850.41 1384.45L4899.79 1262.97H4934.01V1440.62H4903.97V1372.7L4907.89 1310.52L4863.73 1419.72H4835.78L4792.67 1310.26L4796.59 1372.7V1440.62H4766.55V1262.97H4800.77Z" fill="#B24FFF"/>
<path d="M5112.22 1410.58V1440.62H5009.28V1262.97H5109.6V1293.01H5040.63V1335.6H5101.77V1365.64H5040.63V1410.58H5112.22Z" fill="#B24FFF"/>
<path d="M5278.41 1410.58V1440.62H5175.48V1262.97H5275.8V1293.01H5206.83V1335.6H5267.96V1365.64H5206.83V1410.58H5278.41Z" fill="#B24FFF"/>
<path d="M5320.51 1293.01V1262.97H5451.14V1293.01H5401.5V1440.62H5370.15V1293.01H5320.51Z" fill="#B24FFF"/>
<path d="M5543.98 1414.24C5564.18 1414.24 5574.29 1406.75 5574.29 1391.77C5574.29 1385.67 5572.72 1380.88 5569.58 1377.4C5566.62 1373.92 5561.05 1370.87 5552.86 1368.25L5531.44 1361.2C5505.84 1352.84 5493.04 1336.03 5493.04 1310.78C5493.04 1296.15 5497.56 1284.13 5506.62 1274.72C5515.85 1265.15 5530.22 1260.36 5549.73 1260.36C5557.91 1260.36 5566.01 1261.31 5574.03 1263.23C5582.04 1264.97 5590.57 1267.84 5599.63 1271.85L5589.96 1298.76C5581.6 1295.45 5574.46 1293.1 5568.54 1291.71C5562.79 1290.14 5556.87 1289.35 5550.77 1289.35C5542.76 1289.35 5536.4 1290.84 5531.7 1293.8C5527.17 1296.58 5524.91 1301.72 5524.91 1309.21C5524.91 1314.78 5526.48 1319.4 5529.61 1323.06C5532.92 1326.54 5538.32 1329.5 5545.81 1331.94L5567.23 1338.99C5580.12 1343.35 5589.79 1349.71 5596.23 1358.07C5602.85 1366.25 5606.16 1377.14 5606.16 1390.72C5606.16 1406.4 5601.2 1419.11 5591.27 1428.87C5581.34 1438.45 5565.75 1443.24 5544.5 1443.24C5536.14 1443.24 5527.43 1442.28 5518.38 1440.36C5509.49 1438.27 5499.74 1434.79 5489.12 1429.91L5498.78 1403C5508.54 1407.18 5516.81 1410.14 5523.6 1411.88C5530.57 1413.45 5537.36 1414.24 5543.98 1414.24Z" fill="#B24FFF"/>
<path d="M5848.03 1410.58V1440.62H5745.09V1262.97H5845.41V1293.01H5776.44V1335.6H5837.58V1365.64H5776.44V1410.58H5848.03Z" fill="#B24FFF"/>
<path d="M5995.93 1440.62L5958.83 1375.57L5923.56 1440.62H5890.65L5942.64 1348.4L5893.52 1262.97H5929.05L5963.28 1322.53L5995.41 1262.97H6028.33L5979.47 1349.97L6031.46 1440.62H5995.93Z" fill="#B24FFF"/>
<path d="M6086.15 1440.62V1262.97H6144.68C6163.31 1262.97 6177.25 1267.67 6186.48 1277.08C6195.88 1286.48 6200.58 1299.02 6200.58 1314.7V1328.54C6200.58 1344.22 6195.88 1356.85 6186.48 1366.43C6177.25 1375.83 6163.31 1380.53 6144.68 1380.53H6117.5V1440.62H6086.15ZM6144.68 1293.01H6117.5V1350.49H6144.68C6152.34 1350.49 6158.17 1348.57 6162.18 1344.74C6166.36 1340.91 6168.45 1335.51 6168.45 1328.54V1314.7C6168.45 1307.9 6166.36 1302.59 6162.18 1298.76C6158.17 1294.93 6152.34 1293.01 6144.68 1293.01Z" fill="#B24FFF"/>
<path d="M6365.23 1410.58V1440.62H6262.3V1262.97H6362.62V1293.01H6293.65V1335.6H6354.78V1365.64H6293.65V1410.58H6365.23Z" fill="#B24FFF"/>
<path d="M6459.84 1375.31V1440.62H6428.49V1262.97H6487.8C6505.74 1262.97 6519.5 1267.58 6529.08 1276.81C6538.83 1285.87 6543.71 1298.06 6543.71 1313.39V1324.62C6543.71 1334.73 6541.53 1343.61 6537.18 1351.27C6532.82 1358.94 6526.55 1364.77 6518.37 1368.78C6532.65 1393.16 6544.84 1417.11 6554.94 1440.62H6519.15C6510.44 1418.85 6500.08 1397.08 6488.06 1375.31H6459.84ZM6487.8 1291.71H6459.84V1346.57H6487.8C6495.46 1346.57 6501.3 1344.65 6505.3 1340.82C6509.48 1336.82 6511.57 1331.42 6511.57 1324.62V1313.39C6511.57 1306.77 6509.48 1301.55 6505.3 1297.72C6501.3 1293.71 6495.46 1291.71 6487.8 1291.71Z" fill="#B24FFF"/>
<path d="M6645.17 1440.62H6613.82V1262.97H6645.17V1440.62Z" fill="#B24FFF"/>
<path d="M6823.25 1410.58V1440.62H6720.32V1262.97H6820.64V1293.01H6751.67V1335.6H6812.8V1365.64H6751.67V1410.58H6823.25Z" fill="#B24FFF"/>
<path d="M6886.51 1440.62V1262.97H6915.25C6929.01 1280.91 6942.07 1299.89 6954.44 1319.92C6966.8 1339.78 6978.04 1360.24 6988.14 1381.32L6985.79 1328.28V1262.97H7015.83V1440.62H6987.1C6975.95 1418.68 6964.37 1396.64 6952.35 1374.53C6940.5 1352.23 6927.88 1331.24 6914.47 1311.56L6916.56 1372.7V1440.62H6886.51Z" fill="#B24FFF"/>
<path d="M7115.01 1370.34C7115.01 1383.06 7117.8 1393.51 7123.37 1401.7C7128.95 1409.71 7138.09 1413.71 7150.81 1413.71C7156.03 1413.71 7161.43 1413.02 7167 1411.62C7172.75 1410.23 7179.8 1407.88 7188.17 1404.57L7197.83 1431.74C7188.43 1435.92 7179.72 1438.88 7171.71 1440.62C7163.87 1442.37 7156.29 1443.24 7148.98 1443.24C7134.35 1443.24 7122.07 1440.1 7112.14 1433.83C7102.39 1427.56 7095.07 1418.94 7090.19 1407.97C7085.32 1396.99 7082.88 1384.45 7082.88 1370.34V1332.98C7082.88 1318.88 7085.32 1306.34 7090.19 1295.36C7095.07 1284.39 7102.39 1275.86 7112.14 1269.76C7122.07 1263.49 7134.35 1260.36 7148.98 1260.36C7156.12 1260.36 7163.52 1261.23 7171.18 1262.97C7178.85 1264.54 7187.21 1267.32 7196.26 1271.33L7186.6 1299.02C7178.59 1295.71 7171.88 1293.36 7166.48 1291.97C7161.08 1290.57 7155.86 1289.88 7150.81 1289.88C7138.09 1289.88 7128.95 1293.88 7123.37 1301.9C7117.8 1309.91 7115.01 1320.27 7115.01 1332.98V1370.34Z" fill="#B24FFF"/>
<path d="M7359.6 1410.58V1440.62H7256.66V1262.97H7356.98V1293.01H7288.01V1335.6H7349.15V1365.64H7288.01V1410.58H7359.6Z" fill="#B24FFF"/>
<path d="M2067.53 720.385C2085.98 753.775 2106.63 782.772 2129.48 807.376C2153.2 831.979 2178.68 850.871 2205.92 864.052C2234.04 877.232 2263.48 883.822 2294.23 883.822C2326.74 883.822 2353.54 875.914 2374.63 860.097C2395.72 843.402 2406.27 820.995 2406.27 792.877C2406.27 769.152 2400.11 750.261 2387.81 736.201C2375.51 721.264 2355.74 707.205 2328.5 694.024C2301.26 680.844 2265.24 665.906 2220.42 649.211C2198.45 641.302 2172.97 630.319 2143.98 616.26C2115.86 602.2 2089.06 584.187 2063.57 562.22C2038.09 539.374 2017 512.134 2000.31 480.501C1983.61 447.99 1975.27 408.888 1975.27 363.196C1975.27 308.716 1989.33 261.706 2017.44 222.165C2046.44 182.624 2085.1 152.748 2133.43 132.538C2182.64 111.449 2237.12 100.905 2296.87 100.905C2358.38 100.905 2411.54 111.01 2456.35 131.22C2502.04 151.43 2539.83 176.912 2569.7 207.667C2599.58 238.421 2622.42 269.615 2638.24 301.248L2468.21 396.147C2455.03 374.179 2439.66 355.287 2422.08 339.471C2405.39 322.776 2386.5 310.035 2365.41 301.248C2345.2 291.582 2323.23 286.749 2299.5 286.749C2267.87 286.749 2243.71 293.779 2227.01 307.838C2210.32 321.018 2201.97 337.713 2201.97 357.923C2201.97 379.012 2209.88 397.465 2225.69 413.281C2242.39 429.098 2265.67 443.596 2295.55 456.777C2326.3 469.957 2363.21 484.016 2406.27 498.954C2438.78 511.256 2469.09 525.754 2497.21 542.449C2525.33 558.266 2549.93 577.597 2571.02 600.443C2592.99 623.289 2610.12 649.65 2622.42 679.526C2634.73 709.401 2640.88 743.67 2640.88 782.333C2640.88 828.904 2631.21 870.642 2611.88 907.547C2593.43 943.573 2567.95 973.888 2535.43 998.492C2503.8 1023.1 2467.34 1041.55 2426.04 1053.85C2385.62 1067.03 2343.88 1073.62 2300.82 1073.62C2241.07 1073.62 2185.27 1063.08 2133.43 1041.99C2082.47 1020.02 2038.09 990.584 2000.31 953.678C1962.52 916.773 1933.09 876.353 1912 832.418L2067.53 720.385Z" fill="#B24FFF"/>
<path d="M2983.57 658.437V458.095H3682.13V658.437H2983.57ZM3541.1 121.994H3763.85V1044.62H3541.1V121.994ZM2921.62 121.994H3144.37V1044.62H2921.62V121.994Z" fill="#B24FFF"/>
<path d="M4234.56 866.688L4250.38 696.66H4707.74L4722.24 866.688H4234.56ZM4475.77 460.731L4346.6 758.608L4357.14 807.376L4242.47 1044.62H3990.73L4475.77 64L4962.12 1044.62H4709.06L4598.34 816.602L4606.25 759.926L4475.77 460.731Z" fill="#B24FFF"/>
<path d="M5190.61 121.994H5413.36V853.507H5783.73V1044.62H5190.61V121.994Z" fill="#B24FFF"/>
<path d="M6018.76 121.994H6245.46V1044.62H6018.76V121.994Z" fill="#B24FFF"/>
<path d="M6572.75 121.994H6803.41V1044.62H6572.75V121.994ZM7117.1 121.994H7378.07L7003.75 554.312L7397.85 1044.62H7127.65L6738.82 560.902L7117.1 121.994Z" fill="#B24FFF"/>
</svg>
